<mxfile host="app.diagrams.net" modified="2022-07-07T10:45:27.882Z" agent="5.0 (Windows NT 10.0; Win64; x64) AppleWebKit/537.36 (KHTML, like Gecko) Chrome/103.0.0.0 Safari/537.36" etag="c1zQQycyfLoxw7aI98GU" version="20.0.4" type="github">
  <diagram id="Q13c0vYjpiLOrNYA1T1B" name="Page-1">
    <mxGraphModel dx="1422" dy="762" grid="1" gridSize="10" guides="1" tooltips="1" connect="1" arrows="1" fold="1" page="1" pageScale="1" pageWidth="850" pageHeight="1100" math="0" shadow="0">
      <root>
        <mxCell id="0" />
        <mxCell id="1" parent="0" />
        <mxCell id="csUIMektBeW89GE2f3cT-1" value="" style="shape=image;verticalLabelPosition=bottom;labelBackgroundColor=default;verticalAlign=top;aspect=fixed;imageAspect=0;image=data:image/png,iVBORw0KGgoAAAANSUhEUgAAAk0AAAGtCAYAAAALVkBHAAAgAElEQVR4nOzde7xcVX3w/89aa99mzpxzEpIQYgUEASUGhQcFBLVWC9QqUlHxhvrUQtW2arX62F9/9dFaEalcvFAVfbDqA+Kl/CwalVtAkCAKigiKVEAuwRDI7dxmZl/WWr8/9tk7MyfnJAeSkOTk+369JjmXmT179uyz93e+67u/SxV54RFCCCGEmIHSapse793cCDWUc3PklQghhBBih1BqG4MmPzdCDZ1lGUqpOfOChBBCCCF2BGWt9QDWWrTSaKN39joJIYQQYhcimaZSUH0RhiEwd16YEEIIIcT2pLXWFEWBc04CJiGEEEKIGQQw+7TbtqbnxJ5tW4Ny2f+EEGJ6u3rSY64cv7VzDmPMzl4PIYQQQohdmlR9CyGEEELMggRNYqeYK6laIYTY1e3qQ3e7k2DrdxFi20z9g83zvL5aUylF1SssCLa8Ozrndtg6CiHE7so7jza678Nonuc454jjGO+9fFDdTiRoEjtc9ceaZRlRFBFFUf21c44gCNB660lP+aMXQohpTB4+2+02jUYDpRR5ntNsNssr452XcaXtpG5uCVs/KclJS2yr0dFRhoaGcM5hrWVoaIhutytd6YUQYhu1Wi3a7TYAURTR6XR28hrNPRI0iSdNlV3KsowwDPuG5IwxFEWxxcdLUCWEEJurzs3OOZRS9bG12+3ibFnWYAK5Sn57CHoDIQmKxI4UhiHe+7qeCcpAqMo6RVGE9x5jTJ190lpjrd2Jay2EELs2pRTGGLz3eO/RWtd1TCYwUg+6Hckop9hlWGspioIsy2g2m3jvsdaSJIn0EhNCiBk458jzHIB58+bV31c3+eC5/UghuNhlaK1Zv349SimKoiCOY4wxjI2NEYbhrIrFhRBiT5SmKYsWLWLjxo1EUURRFPJhcweQoEnsMoqiqD8ttVotsiwjz3MGBgaw1kqKWQghZlBdhVzVfnrvy6vmKvKZc7uQoEk8aaarmZta3N1sNrHW0u120Vqjta4DqS0tRwgh9mS9fe6stWVBuJZj5fYmsafYZYRhSJ7nFEVRF41XN6C+KkQIIUS/ajguDEOpYdqBJNMkdhlZlhHHMc65OtNUXUEnhBBiZnEc11l5CZx2HAmaxC6jGopzzmGMkaySEELMUp7ndTY+z3M5hu4g8hFe7DKqruBVgzYhhBCzU/VlkmPnjiVBk9ilyB+9EEI8fnLcfHJI0CSEEEIIMQsSNAkhhBBCzIIETUKI3YvqbXK69UOYV+Vt6/SUmxBC9JMjgxBiNyWHLyHEk0taDggh5pbeTJSvAisNyDQ8QohtIx/VhBBzl5JASQix/UimSQixi6s+200fAGm/+e/dZA3TppkNex47NZDyW/nsWN1/a/cTYifqnXIKqGdUENuXHAWEEHOO9lu/jxBCPF6SaRJC7OZkCE4I8eSQoEkIsftRbubhst6fy+iEEGI7kqBJCLH7Uw7loao48JP/K+8mezS52QVQVcC1HQrIpw4Ruvr5t1yjJYTYdUlNkxBi96EcWw42yt8pXwUtcogTQmw/kmkSQuwB9KZL6aZkkTTlUJ9Tm//uCZluGZMZLK82BXFqarH61p5brt4TYqeTv0IhxC5uMrs0Y1BRDakV5Y1iSpuAyZs29c+8mxKxbDWDNXubLZtyaK43YKrW23v/hC8LV0rVj+291Hy2jxVCPH6SaRJC7PpmMd+c812SJGL1w4/y4INrCMIYr0K80ixbtgylYKLbYf78eXQmxlFel0N4k8suM069tUdTn7efniZz5b1HAY04Ic8LnLOYMEYpRZoXtLsZjUYTm+cEgaLIIQk0RVHweOOY3kDp8QZB3nuMKYNIa+3je2Ih9mASNAkhdm1bGO4qlV83GjGjYxv53Ocv4NOf+gKOgMJp4qTJTTfdzH5P25fGwCDtdoo2weRw3eRVeNVzKMemzNXjyzx577HWEUUh69atZ2hoaPJnlk6a84UvfokTTzyRfffdlziO8d6hlMJaOxn0zD5b5L3HufLxYRiilKqfazacc2RZhtYaY4xknoSYJRmeE0Ls2rzeSj1PGdzYwrN+3QYuvvhigkCR5hlhENDptPnRDdfjvSIwIbn1aB1OLnrTkJ1TbKpregK1TcYYhoeHca6g2YxxLidNU37+85/zwhe9kE9+8hzu/f19mCjEWou1jiAwOOfKLFf9WmYYKqzWSzm0gTiOCcOQoijIsmwyWzW74CcMQ1qtFo1GA631Zt2khRDTk6BJCLF7qIKnzaZNKYOM8fE2P7/1Nv6wehTnPYMDLbrpOFobzj77bDCarLDoIKRwHlv2IqBwPcvfBtZa1q9fh/eeMIpIkoQ777yTl770pdz927sZHRtloNUiCiMajUaZJdIBuKqu6fEFakVR1FkqrTVaT7ZZmEXgVBQF3W6XNE3rx0i2SYitk6BJCLEbqQq7K5uyQq3WEJf836/TCGHBXotI0w5RmKCUYvWqB1mxYgVOaXQQ4dD46uY9tmriNE3g5J0vb5PZmCrg8N5jnSMIQgYGB0mShDiOUR6U83Qm2jSbTYqiwBUFjSQh1IY8t3Q6nXqIzWhNmqZ0u12M1jQbDeI4xmhNYAKM1jjrcLZ8nYEJ0FOCHKUUcRzX61Zlnqy1dQbJeoX1iqxwtLsZShkGW8PlMgOp1BBiNiRoEkLsJjavY6quelM4bv/F7Vx91fUUBaxZvYYPfuADLFm8CGMgiGO+fNFXyuJsawmjEIvCKb0pYJrhcKi0IggMURQRhiFJktBqtQjCcDJQyRnZsJF2uwyEzGTGxzmHc5PZI61oj47Q6aQopYiiBjoIyfMc5y3NOGFwoEVeFIyOjtJpp2RZTmELiqIMfExgCEyA9w43GQgZY+qC7m63C5QBULWuQRCglMI5N1n8rWk0GgwNDaG1xjqLc65+rBBiyyRoEkLs4srskvaTV6cpM9nlu9/KlTeRWgiMJgoDXvvaV/PHL34haXeCIk1ZefNP+PVdv8VrU3cfUJNtABwaryhv1U/8pivkrHMUNqPdGafdGQccadqhKFK8MnilcSi0DgBNt9uhMZkx0lqD85g4IQojAh0CGqU0tupdrhzOWpy1KG+IgoA4jnHWoSmvxgtMQJ7npGlGnuWTdVHlCmqtCY1moBGTJGV2TTmPcuVVclUQZW0ZIHU6HWxhsYWtC8qFEFsnOVkhxG5D+03XmHlvMcqiVIH28MUvXkhoIFcRCxcsZOHei3nda1/DpZdeSm4LxtY9xnXXXseyZctYv77NQGTQqLoWyLnq601dxcsvyv9WXLOChx9+mMfWrsE5x7yhYZ5xyDN5zhFHMjw8TJrmRI2EtDvO+PgE69dvYN26x3DeooMIm2aMbhzjoQdX0e12WbJkEUODDQKbYbMcbWAgbpDlnpGRMX56yy389u7fsP6xtTQaTZTRHPbswzj6qOczPH8+ReEo8OSFI9BAURBoyPMuExNdRkbGCOMGzWZMGDe4+3f38pOf/IT169ex3377ccxRR3PwwQejtSYIAmk9IMQsSNAkhNjFTQYxWmELi9blCV6TEhiH8QU33LCS+x94EGsSCh/xhr9+FwODwxx5xHNYsmCIPzw6QuEsn73gs5x++um0mg0iO0Fgc7TROAxussYoiQ1REJKOZWzcMMoXvnIRH/3oR+vs1NBAwvhEFx1AFCZkWcEnPnEOb//rdzI2NsZAI+Lyyy/nve95Lx7KK+TwhCbmLW86DesVXitOf/tfcc4nz6TT7TKchFAUrFu7hk997kt8/NxziOOwLtQGiIIQtCK3jg/9y0d513veQ6coGB4ewqYZqsgJlcMXbf7xvX/Df15+Nan1XH3lD/jdvffxzr99F8qEuCIjiBKcc7z5zW/mU5/6FJ00JwyD/u0tF9PtVqpi/iprWA3J9v5ebDsZnhNC7PLKobKyfqlqPqlVObQ1PjHGN7/5dXILhXXQms8LXvxShoaGGGoN8ObXn0oSAGSk7QlWXLuCQCtMEOBtAYDRiigI8YWl222zYe161qx+hOc+77l84qx/I2jEOAveQ6fbxTmwDsbHu2ij+eD/+iBvectbSJIBtA6IorKlgZmMQ7xXWGfJbY5zHXyRMTTUwnvH4OAA2mh+/vOfc9wxx/GZT/87oHEWGo1GmUUCvHd1Mfq//uvHOHTZYTz48Cr+8Ng6utailMHgCVROHIDGEyjNly/6D9773vcSRRGuKDBhWYflnOW5z30u1lparYEn8d0UYvclQZMQYtdXTXOiHAYPOCJtsLll49pRfviDqyk86CjkiMMP48gjDmfjxo2EYcApr34t2oNShu7EOF/9jy+TpjkoA2FSBkPW4q1jcKAMUhrNmBNPPIGRjWPk1mGtptka4k1vfCPnfep8/uOrF/LnJ/4pAHmekxcZ3/mv73DeeeeSpinDQ3vx2te+ihNPPBHnXRmsJBGN5gCn/9Xbedmf/RmnvuYUOhPjFFmX++79PS8/+RT+sHYDE0WOJqCwBa9+9as477xP8Y2vX8qf/ulLcHmBxuNtxoZ1j3Hin/4ZRe4YaDbKzaR12YJAlXVdXgV8+zvfw+mQNC8AXw9HDg8P89KXvgStNUUhQ3NCzIYMzwkhdnlO1aVFeAr0ZKG2QnHFFVex6tEujWZMp4DTXn8q81oGOwbOwtP2359nPetQfvKru6DocMO1K3jgwQfY76n70Go20IHFFQXWdnHWYbOMC77weR56+BFS5yGMiZOEyy77Nkcf9T9IGgHdiRFOfuUr+P7yH/CXf/nXBHFEmqZ84hNn88bXv46TXv5yTnnVn3Prbb/ge1dchYpicu+48qorePYzn0Eziem6DqHxGOs466yz2dhOCUyTVtQE7bnhxms49NCD6XRSNIrXvOZVrFy5klNPPZU1j63Dtrt0/Tgf/9dP8LGP/gsLorKHVTCZcSqsxwIuL8AaXnPq63nPu/6OhQsXcsMNN7By5Y0sWrSIOI5J05QgMNLgUoitkEyTEGK3YJm8nM1ZjPK4Iqfb7nDpNy8jVNDJPY2BFn/8whfgc08SxVgLA4PD/OVf/k9iBYMDDfAF311+OWFzCNMICaK4LNbG0UwiumOjXHDep9GhwWHxTnH9j2/iuccchw4bdLpdgjiiKFJeedLLOPusfyVPU0Ax3hnhlp/dCmi67QmSMCiH1GwBHsazDjrUoAoiXRBpz22/uJVLLv0GViVkOqLA8JOf/JSDDjqQvMgJgggdhIyNtXnRi/+Eq77/fRYMt8BZ7ESbb3/rOzz4wMPk1pGmKdpDEoYUeTnvnW4t4PkvPZHzPvUZnnf0MTzlqfvx2te9ns9+5t9pNFpkWUYQlAVbvXUxU29CCAmahBC7Ge8tyjuiKODu3/6Wn9/6KzIPEHDCCSdw4NP2p8ja2KIgDMtL91/2sj+n1YzJOhNgCz772c+ybrTDmnVlU8ms0yU0ChUYHrr/94xsnCBNc4J4iL99z3s54OkHYy2ESUQnyzEmYGCgRas1yPEv/ROiACITMRAPc9dd/0082ALlmGiPEZgAbA44rIKywUGOtxne5tz5q9vLXkpeY3PHWZ/4N56y71PLRgs9iZ/BwRZrH/kDSw89iA//v/9EMwxBhxTjHa68YgVJMoAxIY6iLiDPrccVno994hwGh+fXXcDLvk8BaZpOzoMnGSYhZkOCJiHEbsErQJcZD42jyDKWL1+OA8IghrzgTW9+K1GgUd5RWEtWFBS2YN78efzFSa9EK43GMbZxnGuuvY64GZMkDVqtBnmRMvroGu6/7x7iyfl8w7jB6994Gt4pAhPRnsgYaDbJbIoymtGRjTxt3/349R138OBD9/P7B3/PP/7jP9IdHUMb2GuveWRZAUkLjMGHChU4tPHgLTbvcu21K1A6hCAhWrAPr3rNq+sGmUy+Wii7hiulwHlOevnLGBxogfOgDLf8/DaY7DVVsQCFpblwMfMWLsZEiixP0dqjNeR5SqMR0+l0MEYqNYSYDQmahBC7vsk555TX9UGr3U756lcuwbpy4l2dNHj2sqX8YdWDjI1swLmc8c4EazeO4NG86EUvBGtJwhCXp3zxi19kfCJnZHwC6xVJMyFpRNz44xsJAo3WhiCI2HvvfdABWAuNOCLrpmivaU90MEFAc2CAffZZTGOgSdxICJsBhbI4LOMTo0SBgW4KyuCspwz5NB7IXcEdd9yO0h6c5/DnHEEYN+qO372yomB43iDt9ihLFu/NU/dZSGjKrbF2w3ra3Q6FtWhtiOOYRhSA1hz2nMNptAbodDKctWXzS60wRteZJuesZJuEmAX5eCGE2C20kgbjoxuxOMI45Oaf/II168bJCfHWoch41sEHAGVYolQZiFhrCbXBTDbG1N4SGcMvV17Hb3/zK1587JFknXF8nhIox+jGDRgUSRgyMDAw2cOoDJrIIcYQWEs3dzQbLdI0p9FskVrDWDct65dCoChIopCssIABAsgU+AgU5DrC5gVdm2OdAw9RENPtTtDaqwkuIM064MvAJgg1zhUEcUBoYNnSQ7jtt/egWwsJggAThSinIS+zbEVhQSk2jm1EGY1SjiiOyfMcpRVKaYwB53IAyrIlCZyE2BLJNAkhdnnaw/jIGI24QSNuUOSOL37p/2B0gjJlTyRfZLjJWzE5LJc7i/WQW4cODGEQolEUeZcgjrns29+ikzuCpEGj1aTdnmBgoIlSiizL2WfxYoaHh7G2LEsaHx9jaGCAUEcMDy+g3c5AG8bGx8oibK3wuqxdcs7iXMFAIyRqDAAGnEJhQBusdzij2G+//QmMARPw21/fSRzHbNi4gU5WBkvV1W15lqMDg/cF2qjJbFKMy3MmuhNkRUqe5xSFxxYF1nmwFmsthc37tmc5AbHbCe+kELs3CZqEELuFOAwp0gxfFNx3z7388KqrSV2GU5owbqC1QWtd34w26KoGymhy64mSuJznDYdRnssu+0/uuec+unnB+o2jDA7vBSZgolMQGsPv7/s91uZ0Op44gfnzB9mwcSNpXjA22qFw5TCeUprQGJIkoSgcSitajUGcK7uMZ51RcOCsp/AF1mVEcYD3ltVrHmEiy8Cm7L/fYuLEEEYRbnIYD0DhMIFiZMNGBpqDZFlBlmVl76Wsy+DgIFEUEUURQRgShCGR0WBCwiAgDAKqPlf1jeomhJgtGZ4TQuz6lAM8cajRScwN1/2IMAjp5g4Kx7v+4e95xxlvRVNseoj2eOextpy0thHFdCfGee1fnMRvfncP3YkxMqf45e2/Yb/99mX+4HzaGx9jcHAQo6BT5Bgc3e4EYRKQFYqim9FsDeFcTtbtss+ivWmPrWPD2nU8svY+5u/zFHQjZu+FQ4yPrqc91kFjAIsyASYICIIAZQpsYQnDgAMOOIB77/kDTjsaYdnhfK+9BnFFTiftEHhHEgcUPiMwhqKTo6zi1l/8ksLnEIZkWRecl7okIXYwyTQJIXYLylm67QnGH13D177yFbp5hlOGxrz5vPHNb2HRokUsWrSIxYsWsM/eC9ln0d4sWbyYxYsXs3jxElrDQyxYuID/9f73gaMcSis8Hz/rbMIgJs8tWVaw9NBlaAMWy8j6R3ngoftIGiFhEmCSCK8gy3Lmzy8v4fdZzt+/+9286I//mKWHLuNlLzuJ8fEurYF5JHELW1iUjvET4zQbDbyD8fEORgeEQUgURSSRQtkuP115Aw/efw/j7TZdmxMkMWEck+YpadZheMECbJ5z92/u5r7fPwgE4D1HPPvZmwImpXCFJbcOnEUpTRDoegqWmW5CiK2ToEkIsctTHqJGTLMRc+vPfsavf3M3KYD3PO/o57P34iV9l9tvUl51B5BlGUkj4vnHPo8FwzGB0pDnrLrrd1x3/c1ok7Bw4d4cfPAzKApoxgkYxRc+/+8URU47LWuKOlmHZCBGeUtoFKMbR1h5w01l2wPg2cv+B81oEHxQ3tCAQ7USNo6uI0kCFsybT7dTYEzEi1/8Igrr8T7D2zb/edm3iAdiwiRmvDOBMhoTGIbnz+PR1auIo5hLv/FNPGCCCAwcc/Tzyg7pHqnlFmIHkqBJCLEbcEyMbGBiYozvfve7RElQzqGmDae+/nXMmx/XwdFUSivA0Wg1mOhOsN+BT+MVr/hzvC3QcQxD8/i/l1yK94rRsQmWLTuMpUufQZZlKKO46uor+PHKHxMnISPjExQ+p9sdJ83G2LjhMT5z/meYaHdodzo4NC95yZ+SphZrNc6VBeHeFXjfodkM2bCxzcaRFKObtCdSXvaKE1iwMCIJwGC54ILPcM3VV9MpMsIkppOlpHnGRHucvRbM59prruOLn/8SYdzAeguBZtmypZNDmEKIHUmCJiHEbiEMQ9auXcv/91/fJcsdOohIhgY59rjjsLacn871ZJZ6eQVpnqEDjSty3vCmNxEEClekUHS56oofsGrVKlrD8wiSAd75rnfjlcNnHdLxEd76htdz8VcuxuAZSJpYZ0nTlE996lP8+xc+jwWMCVmyZAknnngijTis10N5V9ZajY/ywQ+8j9t/eTv33Xc/69aOETfmse/+h3D6Ge9AKQi0wnU7vO6kk7joc1+AzKKcZ3h4GGUCvvb1b/Lnr30jKYo08+AD3veed3PgAfsCDq9cmVyrD+0OhSszUJSZqOomhHj8JGgSQuzStC8PVGEYcv2NK3ls4zht61BG84qTTmLJUxajdVn4rfXkXGmesjDaldGB9x6lFDoI6aJ55mGHccgzDoR8DCYepRhfzxU/WE6a53RNwJ+96hRecfIryxXoprix9bz37X/JvosW8v73vp/3/O37Wbz3vnz8384lBZwJyJ3jC1+8kL3mD4DLSLMO+++/P/su2ZsACDT89rbbeNnxL+V5z30uZ511Nlmu6HZDTj/jfRz4tIMxGJreMKhjzvyH/4dDnvI0/v7v3sMpp7yOhXvtw1+d8bekBEyoBi4Y4JhjXsj73vVuIuUITEEnn4CoSWFiOgDeEWuDSwsCrzBsuvUGUNX26r1JzdPuZep7pbWWuQN3AAmahBC7LO2hOtznhePzX/w/mNBQTabyulNPZWhAMzY+scXluMmgSSmDRzMwOMwb3vA6wJVX2RUTnPvJf6PdTelaS2NwiAsvvJD3/v3fESjwuQVXEGK56EsX8c1vfovQGJpxgglDMpvytUsv5gXHHoPyGd1um0aSMNBs8RevfAVDjYBQgfG2fE6juP2XvyQMYroZDA0v4qaf3srJJ59MI4jQRUEIZO023/rmt1h++XdRygAKTIRJBjjyeUfxne98h8GBBq0kRmlb9nTKLN3CEwMmCEjCgGYYyMFeiO1A/o6EELs4hwPuvudeHnhoFZl1BGHEggULePZzDmP9hnGaSTzjo5VSaFU2gywnrM1JkoQTjz+BffZeCMoRRAGj4yPcdffdDA4OMjY2hjEBH//4x/nedy/jqKOOBCCbnKak0WiSWwvAW9/yP/nvu+/hlJP/gqQR4HKLVp7cOhrDQ/z9+97PGWecgfcQxxFxYvDe8thjj7J23VrCOCC3lvFuh09f8Fm+8Z/f4JlLD8VhUQqSpIkOIvJ2BlZx4p+dyLe/9Q2WL/8ujWaIzTPGx0cZ2TiGCWMcQTn1iw6JgoCn7buEOCq3oxBi2yjnXJ13lRSeeLJpret0sjGGjRs3Yq0ti3yFYHJKFO8ItEYZw3g7JYwbdHJLa2iQtLBkWZdAQ+Adxm+q4fFonConsk2LjIFGjPEFabuN955Oapm/aB82jo6SNBKyLCcJDVEQ4oqMvMgINDgLax55jEcfXUO7m9Vztj3jmc9k8d770O520UFI4R1REGLzFOMcUWgIY8PIusfInGPN2vVYAhYsWkKaFyxcuBBXdAkn65mMh9AEjI2MMTo6zj0P3M/akREagy32WjCfpyz5I4aH51PkBc2BJmmaMjIywoL5Q0Sho8i6xCpi4/qNtObthVUB484TGEPgUpR0AZ+znHPMnz8fpRTOOcIwJMuynb1ac44ETWKnkqBJbI2eLGQOAk3azRkYGmbtug0kzQF8YBjvTNAaHMBmOYF3BK7spY0vAyarNB6NN54iTTE+J4kC2p0Og0PzSHOPMiG5LbDW0mzE+MLibY73toyY0ChlUEr1FFlDEIakaU5gDE6VBed1kbUtiAJDmnVoNMupUIKkwUQnL698c54sy5k3PMjY+nWERjPYbNIdbwMaHYTErSbj3Yw0z3CuzJYVRQq4svO5MRRphlKKwLjJtgPl+hkV0s5TooFG+dxaCsDnMgmanhxyZhJC7PK8KqcgyfKMLMsYGhoq54frpizcaz7d8YkyuNrS1CBe02oN0moNATB/3hAT7TE8OVneJQxDms0m7Yk2eZ7jvceYkCRp0mg0iKIIMxmoVLdut0sURnXg3xuUmCCgmxf13HFohbMOrcH7yfngfMH6tY9iohCvYKzdxitoDDTxwCOrHyHNM+Jmg2ZjgPGxMcpOCw7rUtrtERrNmDA0ZZDIZIBIgMVhNCjbQet8ctsIIbaFTKMihNilOQUGReEcOgixRVlI7bEkjYhuu00UmvKqL9X/OM9kwAWk3QxvHZqMIu8SJiG9869NtMdoNFqEYUAjTsjTDnlekHUzrHVESaNccHV1kpm8Okl7sA7NlEy9Lw+vXhmUDvBY8iInCMqsVhhGBFFMZ2KMRhKhlaIz3sYpGG+X2aak2SRuJmSFpTPeZsG8+Ux0NwIFUahpNpqMjmwkDGMCE6JcGThpD87nhKEmL9pExmC92YHvkhB7Bsk0CSF2eYVzeGVoDAzgFHS6HZRS2CynSFMiE2KUR1eZnml6NbUGWvXXAwNDbNwwykBzEKUVURQw0BygSDOCMKTdbmO9IgjKSXgHBpoYMzkhsClv3vk6i6T05qUNzlniuEGa5ihl0KoMosoJfhVpZ4LCZgShYXxigvbEpiyTU6AMJEnC+MQERZYx0GgwNj5Wr0NhLZ12ysBAk8CUAVHZFd3hJifkDbSCwpZtG2RoTohtJjVNYqeSmuBeqkYAACAASURBVCbxeJRBwWTTSKUm9x1XDz3VU4mU3+EBq8uGl0opUG5Ts0kA5SYzUrqe8mTT493kM7l6eW7yMeXK9O+jm9pJTv7a9/bHcaAK3GS2zFmwVEN65SNMdd8py/Vqci2c71mfTUNtbvJhWm3KJCkcynk0Ck2BUoYCVb8iMfdITdOTQ4bnhBC7halzy9UBkwfU5pmU6lvl+78ulfPBucnAaiYO0FNCp9ma+iHUe1XWHdnHuaBJum8NeoMf1/+/cuBBKT35wjXeKVCaqSOIQojHR4ImIcRuZprwxev653Vw1RMNKRyKcg46lKvyUn2LKAOqzZc922BpNvdTWs0QwE1Z4b71clv4bU+wuFlA5Db9K8GSENuFBE1CiLlhhgl7N4UzauZJbWd87PaiywLyHTipbh0XTQZRTk2fjxJCPHESNAkhdmtVbyQ3We+kp2SMtKesZUKB76lPUpS1TptlfCrbN8Aqh+tMHdxslvyZOv447eOn/UX9pe4JmHr/L5c/yxUVQsxIgiYhxG6vKpaugiddDdep3nqfqUVRc6coemo9l57cDr1DlTJCJ8S2k6BJCLFb23RFWFmy3dvEsa5TUq7OyNT3nzHDtHupAqZ66pgp0VF9dR1IR3AhtpEETUKI3dqmkMeV6RQPTrn+7IvXzPXxqU3Bkt40LDe3X7IQTzoJmoQQu4WZsyTT1x7Vw3RVfU9fEDUZXQHwBHsAbNWOWm6/aXsvVdknNgWVkmWa25RS9Q3Kvk1VD7zq92LbSdAkhJizquJwYI/NukiwJMT2s3sP5gshhBBCPEkkaBJCCCGEmAUJmoQQQgghZkGCJiGEEEKIWZCgSQghhBBiFiRoEkIIIYSYBQmahBBCCCFmQYImIYQQQohZkKBJCCGEEGIWJGgSQgghhJgFCZqEEEIIIWZBgiYhhBBCiFmQoEk86bz3fbNvCyGEELsDCZqEEEKIOUA+jO54wc5eATH3zfYP2Vpb3z8MQ9I0RWtNGIYURbHNBwSl1BN63NTnlQPT3NS7f1TvcRCUh8iiKPruU/3vnCMMQ5RSOOdwzs24fNlvxJOh2s+01k/4mCdmJkGT2GUYYyiKgkajwcjICENDQxRFwcjICM1msz6BPV7VQaQ6oT3ek9fUA48x5gmth9h1Oef6ho2r9zzLMmDTe1793ntPHMekaUocx6xdu5Zms7kT1lyIkrWWIAhwzqGUkoBpB1HOufoMIhtZ7AgzZWq01mit+34fhiF5nhNFUX3CGhwcZGJiYouf4mdjapbg8ay7ZAn2HL0nnGqf07qsZOjdD6rsklKKVqvFxMTEFpcr+5DYEaYez3r32TzP659X+7DYNhI0iR1uuqCpOjFNDZoAkiSh2+1ijMF7v90+OclJS2zJdPtHdaKZLmCvAvtqf93aSUn2P7Ejee/7jp0AeZ6XGVTnMYFkyLcHCZrEk6J32MMWFm3KT0FJkqCUIooiut1uff/qj76qc6psyz463UnLGEMQBKRpCpQnSefctCdAOenNbdN9Yq8Co97gPooi8jyv95PeDwFbIvuP2FF6a/CqY2ZVYydB0/YlNU3iSdFbIxJFEc45rLWEYUiWZeR5vlnAUh0IqgCqOgBsr/XRWmOtxVpbn/SSJKHT6UhbhD3QdO93NURc7R/GmDrAhnLfrPafre0zsj+JHakqd6h47+tSB7lOfvuRTJN40tjCYgJTB07ee4qiwBhTBjCFJS9ywiBEaVX/zDqLc44kSbbp+acbJnzPe97DRRddRFEUaK3JsowwDLngggs4/fTTt/h4MbdMd/wrioIgCPjBD37Aa17zGrrdLjfeeCPPf/7zKYqCMAxx1qGNXKkkdp4qYK8yn711o8CM2XPx+EmmSTxpTGCwha0zTd75OtMUBAHaaIw3fWlkpRVREO2Q9fGuHFbpdrv1VSfee7Iso9vtyklwDzP1/a5aX9jCcs4559TDxx/60IdYsWJF/Ril+4vGZ+KdBN1ix3DeoZWuM0pKKYqiqLP5EjBtPxI0iSdVFRAppVBG1SemShAEffVP2/OPfbPWAYGZsXaqqlmZ7nESTO0ZlFK0221WrlzJj370o3KYA7jhhhu45pprOP744wFmX9ck5y2xgxh6PmhO7oNBEODstl1xLDYnf8Zip9gVAw8ZfhO9nHM0m03OPfdcoKxvyrIMay3nnXce3nvSNC0LbuXkJHZB2mipz9zOJGgSYgZTMwfSMG7Pc8UVV3DllVfW732Vbbriiiu46qqr6m7gsGt+EBBCbF8SNAmBZJnE5rTWfPKTn6TRaNSf1uurkYDzzz+/HtaVy7mF2DNI0CR2murT+0y3J8O8efMANkthb627s5i7Op0OANdeey0rV67sazEAZb2bUorrrruOm266qa/rshC7ip1xPN0TSNAk9lhV8e5MvxN7jqrzPECj0QDKTFKapnjvMcZstq9Ya/nEJz4BIIGTEHsICZqEmEbv1VDySW3uU0r1tQRYvnw5y5cvr7+fLsC21rJixQp++tOflpd7CyHmPPlLF3s0yTSJigkMzjmyLOP8888HNmWdZroCSSnFP//zP29W0yRXLAkxN0nQJPZYvRMGSyZJVIXeN954IzfddBNa6756pukyj1mWceONN3LNNdeU7QgKW99XCDH3SNAk9miSaRKVPM+J45iPfOQjm9UoTbefRFFUTqPiHOeddx5RFFHYYouPEULs3iRoEoLpp9AQe5YwDLn++utZuXJlX4f46YKfarqdas7Ca665hmuuuYY4jmXfEWIOk6BJ7LF6h+Wmnui2No+Y2P1V73n1v7OOD3/4wwD19DrOubJIfEqNUjW02zsh6tlnn13fv5rHUAgxt0jQJPZovX2aeo2Oju6M1RFPst7A6Yorr+D666/fbM5BrfVWh3G993W2CWRyXiHmKgmaxB5LMgF7NqVU3ahSKcVnP/vZ+nfW2nr/qL7eWo1SFEWceeaZ5WTP3skVdELMQRI0iT3W1Cuhek+KcrLbM1Tv8/e//32uvPJKjDE0Gg201jjnMMbUQ25bk+c5N998M9deey1BEPQtXwgxN0jQJMSk3hOc1DTtGQJTBjef/OQn69qlbrdbv/9VzVLvMNxMNygDp3PPPbevVYFknISYOyRoEmIacpLbMyituOGGG7j++uvrqVR63/veq+i2tk9UWcurr76aG264oS/gkv1JiLlBgiYhptF7shRzk3MO7zz/+3//b6Io2uz3Veap9wrLrWWagiBAKcXnPve5evlV8CSE2P3JX7PYY1WXjU83t5xkBuY+pRQrrl3BTTfdtN2C5CrIuvzyy1mxYkU9vYoETkLMDfKXLPZ4EiDtmYqi4Mwzz8QYs12CJucceZ4TBAFhGHLeeefRbrfrqVWEELs/CZrEHm1ocKgOmnqzTWNjYztrlcQO1ul0ALjqqqtYuXIl3W53u055Yq2lKAquuOIKbr311u22XCHEzidBk9ijKS1zz+0JqiJvgEajAcCFF14IlN2/t0fQVA3z9l55+bGPfQzrJNMkxFwhQZPYo/WeLHtrmyRomluUUn1dupcvX87y5cs3TaGyg1pMrFixgpUrV+6QZQshnnx7VNAkJ0Ix1damxxBzhwnKRpVZlnH++ecThiHGmFm9108kE6W1JkkSPvzhD0vfLyHmiD0qaHK2PHClaTrjJcNiz9F7Ofn2rGkRuybnHFprrr/+eq699lqyLCunPJkhoKmOC2EY9nWPr27VhL3GGIwx9fdBEBAEAd572u02N998MytWrHiSX60QYkfYo4ImbTRZlhHHcR1AiT2bZJr2HFWX7o985CMopQjDsO8WRVHfrdo3qqCoMlOLiqpuqigKiqIgCAKazSbOOT796U8/eS9UCLHDBDt7BYTYWaY7+Wmt+yZrFXNHkiRkWbZZjVEV6Cil0GrT58iqx9LUbGQ9ZUqWlz/Xm34/XTDlrENp1TeHnWQ2hdg9zemgqTpgVQe/oiiIoog0TaftACz2PL1TXfRN2OskaJprlFJEUVT3UoLyfe8LkqeJZWYKcKZeedk7zF89pnouaW4pxNww54Mm6ywGw0MPPUSj0WD9+vUEQcDAwADGGIaHh3HOEUXRZtmFXe3TYJ7nhGFIu92uL5tWSpFlWV13IR6fZrNZf90bOG3YuGFnrZLYwcIwrAOcKrNYDcfZwqKNpigKtJ8+oJ6N6jFBEOCdx+EkcBJiDpjTQZPWmjAMyfOcr3/963zoQx8CyoxTVeDZaXfQRtfzTO3Kqk/HvSf6NE1ZtWoVSZLwR3/0Rztr1XZ7T+TEKHZf1VBamqbEcYwtLHmRkyRJ/eFkW48H9T6lp3wvhNhtzfmPPlUwdPHFFwNltqYKmJYuXYoJDEqr3WKqgyqrBGWwZAvLaaedxkEHHcSNN964k9du9zTTp/9dPYAW2y7Pc+I4Jk1TTGD6AqaqS3jvbarprqib7jEzPV4IsfvZ5qDpiVyyv7VL/Xt/tq0nL+ccQRBw11139c0v5Zzjla98ZZmO1xrnt8/VdNurhcHUx3vvsUU5jNDpdPjmN79JnMRcdtllhGHIC17wgr5GfbN9/tmu7xN5fx/P/be32S5zatC0o5sdil1HEAR14NQ7b5xzjiRJtntLEgmchNj9PeHhuelO6lWNQNUPxRa2zOJYSxiGAH1XkEy3rN6vq/vZwmKCsgldt9ut63mq5aVpSqPRmH6dnGd8YrwvYGq1WoyPj3PqqafWReJBENQ1DVUTvOogWi3/8WyPLf1suuzGdPOfTWWCsjbr4IMProvZq+XtvffedfrfO48ymw839hU6T7Nuzjm8833Dlb0tGqptNZOpy6ze/97nVkrV27X6mbOuHhqptn/1+GpdqiBm6vZRStHpdOr3J8uyush/NsMhUzMC1WuQTNOeoeqnVH1dmRoobevQmgRMQswN21zTVJ9kJq828qo8iXu/6eRbBVDWWYw26EBv9nhnHdbZun8KbDrp9l76W50cq4Nanuc0Go1pT6rW2jrLVDWfK4qiPrHut99+pGla1z5VJ+zq99XJN0mS+jm3dvCbLuibuo16i0KrQEVp1RdM9QaMsOny52OOOaYOlKqhxn333RetdD18F0XRjEHG1ta3971RShHHcf19FQzPZOpzWWeJgqiuGwHqr6t1N9qgjSYJEpxzOO9QTtWveeq2U2bTNq0CvN51nHpV5NaC0ZkC+O0x673YfUydTmdHLVsIsXvbboXgVYAE9GULei/7N2zKIDjv0EqjTXkSrn5fBULOufpkWAVI1tr6xF19KqwvGZ9yUgXqhnTf/va364yR1rquCxoaGqrvWwUb1f+9wUqVbakyEb0n4tkcEOtAoyfeqF5H1R8m1OFmj6uu/gPQvrzv2rVrybKsnmTUWss73vGOvgDjiZg62WhvcOS932qWyTmHtRatdH3fKoCpso/W2rqGpBoSgTJgdt5hjOkLXqEs2u92uwwODva9Pq11vT2r7FW1z/RmnnozR9O9V1Nf53RfCzEdCYaE2PNst6DJe09RFIyPj3PJJZdwyy23MH/+fIIgYGxsjGc+85mccsopPPWPntoXIFWPrU5qzro6IMqyjCAIuO+++/jFL37Bj3/8Y4aGhnj44Yc58sgjOeOMM0iSTRmKasind6jQe893vvOdvlqVMAx53vOeh/eeNE1JkqSuZagCJhMY7rjjDn7zm99w++2345xj3bp1HHvssZxwwgksWbJk2uGu6a7Cq77vdDr88Ic/5Pbbb8cYw+9+9zsOOuggjj/+eI477rhpt6fRZfCQpim//vWvsdbWwRJQv8bR0VEGmgN1H5regHS279+PfvQj7r33XlavXo3WZRC8dOlSli5dyiGHHLLFx2utGR0dJQgC4jgmDEMeeeQRPv3pT9Ptdjn6qKN58Z+8mAULFtRXK6VZijGGKIowqtwf7rnnHq6++mruvfdejDE87WlP4w1veMO063vLLbewYsUKVq9eTRzHPOUpT+GNb3wjixcvru/Xm+3brBeTBElCCCEeD+ecr26Pl7XWe+99kRf+yiuv9IAHvFLKA15r7bXWHvBJknillG+1Wv7iiy/2IyMjmy2nWgfnnM+yzL///e/3jUbDK6W81tpHUeSNMR6o/3/Ri15Ur0P12CIv+r6v7l+tVxzH/qKLLvJZlnnvvU/T1LfbbT82Nua99/6DH/ygj6LIt1otD/goinwYhl4p5ZMk8Vpr/6IXvch3Oh1vrfVZltXbsPe1VOtwww03+EMPPdRrrX2j0fBaa2+M8caYetlxHPuLL77YT0xM+CIvvHPOp2lar38URV4pVW+LaltXX1fb58EHH+x7/b3bOMuyev2q72+99Va/aNGiel2q5VbPV20vpZQ/88wz+96fXosWLfJKKR+GoV+9erU/88wzfZIkfcvUWvu3ve1t3lrr58+f78Mw9Fpr/+Uvf9k/+uij9X2q97baXkopf/jhh9fr3u12/UEHHeTDMKyXDfhGo+EB/5KXvMR77zd7X6bu4845/6tf/ap+nb377mGHHfZ4/xzEHFPtO9V+MfUmhNjzbFPQVDnqqKPqoALwzWbTK6XqE3EVIFTfK6X8aaedNu2yJiYm/F133eW11vXyqpNob5DQbDb7TpgPPfSQ974MgNI09d6XJ81Vq1b1BRzVet522231c7bbbZ9lmV+9erXXWvs4juvn6l2H3mCwet5HHnnEdzqdelnVc7fbbZ+mqT/kkEPqk3v1/DMFPIA/5phj6vejyAufZVm9Tr0H7GoZYRjWy9Ra+9HRUe+9n/b9rIKdKqD6l3/5l/p5e9drcHCwfu1hGPYFqscff3zfMtM09dZaf+ihh9av8YQTTpgxeP7yl7/srbX+Oc95jh8cHNwsIOx9v6vHVd+/8IUv9O12u96XegO86me9z1XkhbfWemttHYj2stb6O+64Y9qgadmyZY/rb0DMPRI0CSGm2qaWA3mec/TRR/Ozn/2MPC/nYaoKlBuNRlnjostC3Wo4qZqy4JJLLuHyyy+vr1KDstbp/vvv59nPfnZ9lV1VpA1lJ99Wq4UxhjRNUUrVdUv77rsvnU6nr5DcGMOKFSs2K/L03vOMZzwDoK5/+cMf/sBTn/rUumAcNl26nyRJ3eyuqs8xxhDHMfvuu2991RdsugKn0WiQJAn//d//TZ7n9SXM1Xaovofyaj7vPVEUcfPNN3PuueeWtU5a8cADD2CM2ewS+GpG9TzP694yS5cuZXBwcNorFHtfu9KK6667jo9+9KN1N+Rqvc466ywuvfRSvv/97/OGN7yhHPqsao+c4+qrr+aRRx6h0+nUy7TWMjAwUG/7FStWsGDBAhqNRl0n5Zyj1Wpx2mmn1UN/Y2Nj9boNDQ3VheeveMUruPDCC+v3MAgCwjDkxhtvpNlsYq2thynf8Y538O53vxuYrJ/ree23/fI2rLW02+36IgMhhBDiCduWTNPvfve7+hN/b5bguOOO87fccotfvXq1v/Trl/qhoaG+LE8URXVGwPtNGZA0TevlTM1wzJs3zy9fvtx/7Wtf68tGJElSZyUuueSSet2qoZw3velNm2UvjDF9GZdOp+OTJKkzTPRkMObNm+e/973v+csuu6xer2r9q+V96Utf8t73DxEeffTR9TJ6h7oAf+SRR/pzzz3XP+c5z+nLZimlfBzH3hhTL+vyyy+vt9V0mabezMrf/M3feO/L4avpVENqzjm/aNGiejhLKeW//e1v+yzL6ltldHTUH3LIIXVGSmvtzz777L79pcgLf/jhh/dtO6WUP+644/yGDRv8xo0b/cUXX+zf/OY31+t3xBFH1PddsGCB11r7973vfZut+8knn1y/f9X7U2UqO51O35Du2972tjoDaYzxRxxxxGb7Qy9rrb/zzjunzTQ961nP2sKeL/YEkmkSQky1TUHTxz/+8brGphomqoY1epeXpqk//fTT6xNvo9HwURT5+fPn+3a7Xd/3lFed0lcDU90uvPDCelnVkMtRRx3VV3Ojtfbz58+vn7vb7XprrR8aGqqDlyroOfnkk/vW7+Uvf/lmz1kFQ71DfVmW+WXLlvk4jvvWM0mSelnOOf/DH/6w/l01bFQFQ/fdd1+9TO+9/9a3vlUHS72B4i9+8Qtvra23zwMPPDBt0HT33XfP+v2qApKJiYm+IblnPetZvsgL3+12vXOu7z3x3vv169f3BcUf/vCH6+HHKvg87LDD+rbd4YcfXtdW9dZYVf8fccQR9T7TbDb9kUceWQ+l9d6KvPALFizoG858+ctfPuP+WgWCxhh/wAEHbHF7OOf8r3/9683ee8AvXbp01ttVzE0SNAkhptqmoOmrX/2qbzab9cm30Wj4hQsX+ocffnja+19wwQX+zjvv9I899ljfz7vdrh8ZGemr+6lOfu94xzt8mqb1Cb9a1/Xr1/s4juv7xXHskyTxGzZsqIOSbrdbFxv31sB89atf9dZaPzEx4UdHR30URT5JkrrIO4oif8YZZ3jv/Wa1MBs2bNisniiKor5C4ypIq4LJ6oS/atWqOqPWWwfVu7zq63POOcd3Op06yPjKV74y7YG7Ws7UwuyZdLtd/+ijj/qXvOQldVH6T3/60/rx7Xa7LytTbcvegOLpT3/6Zss98sgj+4Kmxx57bKtBU/W+RVHkV61atVnAVDnwwAPrmi7Ar169etrX5pzzBx54YL1P7L///n2ZqOnu/5vf/GbaoOnQQw+d1fYUc5cETUKIqbap5YD3nna7XdcAdTodrLXst99+LF26lPPOO48XvOAFdXPId77znfV9eyfFjOOYD3zgA3WH66pORynF+eef39ewUE1OspkkCcPDwzz66KN1zx9rLfPmzSNNU9rtNqOjo3Vvp6r2KUmS+vL+RqPBP/3TP1EURV23E0URRVFwzjnn1HVKzjranTaDg4MMDQ2xYMEC1q1bV/cHqtY5jmMeeeSRuhdUVf8E8NrXvpZ9Fu9TN7HsnevuS1/6ElprDj/8cIaGhli8eDFhGJIkCe12m8AFfP/7399s+0dRhDGm3pZbUjUXDUzAggULWLFiRd/vq9qyqlFo1e4hiiIeeeQRms1m3efKT16+76xDaVXXNVW1V957Fi5cuNX5/NRkM07vPUuWLJnxfgMDA3VtXLfbZZ999pm20aazjoULF7J69eotPu9M6+Kl7YAQQogteEJBU3VyWbJkCWEY9k0km2UZrVaLO+64g+OPPx5jDPPnz+ess87i9NNP32w5VXB0+eWX100bq2BDKcVtt91GFEUMDg4yMTFRN7ZsNptEUUSj0aiLufM859577+XpT3863W6XSy65pC7ettbSbDZpt9sccMABTExMMDAwwMUXX1zPQdXb+HLNmjWMjIwwMDAAlEXoDz74IFprlixZwsTEBN1uFyiLsh999FEWLVrExz72McIwJE3TvqLkCy+8sGxU6cpgx3lH3i0LxE8//fS6OaNSqg4S8zwnjmK00Vx33XX1dquKq4899ljCMKzXeUtMYMg6Wd+y0zSl2WzWReVjY2Pkec7999/PVVddxY033sg111xTF+pXr3WvvfbqmwqlulWB09KlS+teUVvbh6IoYtmyZX0BZqXb7RJFEUEQUBQFRVFwyCGH0G63aTab0y5Xa10Xqc/G1OLw3j5fQgghRK9ZBU0znUBOOOEEFi9ezGOPPVb/LI5jxsfHy87Ok1fKrV+/nre//e2cccYZfPWrX+Utb3lLnRkJggDvPKtWraqzGNVVc957jj32WAYHB+l2uxRFQRAEfVNcVFfQZVlGGIYsWLCg7gy9fPnyvnW31jI4OFhnLbTWrF69um5q2ZsdmtrMsbdJ4tSfV1eGRVFUB39VgOa9p9Vq0Rpo9XXVDsOwLztUXSXWexKvft/tdlm/fn29bar7vO1tbwM2nzpkJo1Go286mziOWbFiBf/wD//AHXfcUXfrhv5O2VWWrspGrVmzpm+ert77ee/pdDqEYVhPEdO3vfSm7ai1Jk1TNmzY0LeN69cfhPV6VPtSEATEUTztFYLabAqYquC7us9MV871doWv7ucnm4UKIYQQvZ5Qy4HeT+L33nsvxxxzTD0vXHXSne4kFUURb33rW3n1Ka/e4tBNtewqaBgbG6tPZtVw23S3oiiYN29enUX50Y9+hDGGVqtVn3xPPfVUut0uRpfDWtXJuBommikYaDQaaK0xxtS3anhx/vz5dVuFNWvWANBut+ttcNppp9XToUxVbS/vpp/mI8sy1q5dWwcZvYHlscceW99na0NhUA6fmsBgtGHDxg3stddenHTSSdx55531sGdvBsc5VwepVWuCOI7rgHOq6r3JsqwePquCpKmmZpVmI4qicl+YMk9fZXu0FJC2BEIIIWayzX2aoiji6quvZs2aNbzgBS+oT+zTTXhaFAUA3/mv7/DjG3+81eVXJ2qlVD1H29SeS723qsaqyhpVgczY2BjOOdI05bTTTiNJEgpb1BmUallQZr6q4KjZbBKGYd0PaaqqL9GGDRvqx1Q1TkDd4+lZz3rWjDVHcRyXw5LTzO1WBae9GbMqExYEAU996lOBMpiYKTjp1Wg0GB8fxwSGRYsWkaYpaZrWQ6yDg4MURcFxxx3Hu9/9bm666SbWrl1Lu90mSRKyLCNN0/6gaHK7Tc1MVd9vKXB6vLIs+//ZO/M4uYpy7/+qztY9e1YSCFkIwSQSIBIM8Iqg7AQwcCFgELigAYyCIgLC1Y/AFREVhKviRZFNwwUkwiWgMXIBUYHIFhBkMRGIiWSBTDJLL2epev84/VSf090zmUkmy8w8Xz5NprvPqVNnrV8/z1PPg6FDh8YirgcicXPUEkjJHF0MwzAMk2SrAsFJCERRhBEjRmDJkiVob2/HkiVL8PWvfx1vvfVWankaiLTWuO6663DYYYd12/6DDz6Ij3/842hqajIuP8d2EEZhly5DSjS5bt06E+sjpTQ12aZMmWKCtmtRLBZxzz334OSTT0Y+nzeuPsuyjOgjyA0XRZEJdicoeO/NhgAAIABJREFUoJzinkhgJsnn83j00Uex5557Yty4cRgyZEhVfzzPw/333586fuS+pPZMsdwa1pdKpJS44YYbzHpSStTX1+MHP/gBTj/99FSRZCperLU2+0HfaaVRDIpGsJLFjNpNnh8hRJU8J3HdVSLOSsjS1t7ebkRZX8YdUVsk9jmmiWEYhqmkR5amSouOlBJaaWzatAmvvvoqHnjgAbNsfX09/u3f/g3Lli1DGIaYP3++mVVF8UdSSixfvtwMhEIK833yNX36dOMuymQyyGQysGzLWH6SbTq2Y6whYRRi0aJFpq9AyYVVEnck9rTWVdYmx3Ewffp0aK3R1NSEpqYmZDIZuK4bC7JSsLPnemhpaYHjOMhms6k2AJgZeZ7nmWB3so5EYewS/NznPoe5c+dixowZGDp0qIlryuVypi3f97F06dLU+dBa45xzzklZnyieaHPYto0FCxak4pT+9Kc/4eyzzzYCKSkgkseQ3JK2bcOyLdiWDdsuv5LHUkWqqj/kXqV9I9cogJqWPDpW1G7SglULimuzLMuIyCiMurUaUaB/so90XBiGYRgmSa/cc0EQoK2tLS53kfEwatQo7LPPPjjzzDOxYMECRGHZ2kEWi//6r/+Kg3c9zwyalmVhl112MUHUWumqwGsAmD17NhzHSU3r11rjX//6F0aOHInGxkaMGDECu+++O2afNNtYozzPw4IFC6raGzduXMqSEAQBRowYAdd14TgObNtGoVDA3LlzAcDsDwme119/3QgpL+Nh7NixmDNnDlpbW40gmjRpkmmPjtnNN98cpz2wy8JmxYoVuOeee0xcled5Jnjec+OA7CiM4DiOcTnSMcxkMjj044ea4xeFUVXAdVfQTLTkjMKJEyfWXLaurg5aa9x+++2pWWVkSVI6Pnf0edItqXTZqpj8XIqydYksXeQirETp+JhRqoMwDE18VS1RQ9ZEusbI7VmZ4qE7kn1lGIZhmCS9Ek35fN4M7sn4nUwmg7POOgtL/7I05ZoRQuDOO+80bi6a3h4EAU455ZS4A1JCaYVvf/vbVdt74YUXMG/evHh7MrY2LF++HJMmTUKhUIBSCu3t7Vi7di1+85vfpAa6F154oaq9U045xUyD16VabzfccIMZYMmFtmzZMlxwwQWQljRuqb8v/zv22WcfALEVSWuNdevW4X//938xZMgQ5At5aK0xbdo0E/NDx2DlypWYM2cO8vk8fN/HD3/0Q0ydOtVYpciCUywW8fzzz8Oy45lt0pJYu3atsZwUi0XjKntp2UtG1Fm2Bcu2NuvmSqZfIPcexSiRdStJoVDA+++/b/JrJYPgjdXQksbVlvw8aXUioiiCZVup+LTKOLUdSbIfLJoYhmGYKnqbETyXy+kTTzzRlKpIllBBKcPzaaedpk844QTd2NiYqh+HRG2vQqGQqoVWLBZNyRF6DRkyxKxz4YUX6gMPPNCU0hBC6Gw2qxsaGjQA/cILL+goikz28IaGBlOXjV5PPfWU1rpch4zKdFiWleo/EnXIvvjFL+r99tvPLCOEMPXNUCp34vt+KlM5fUdtUYbzTCZjjoPjOKZ0CrW7//77m+NMx+ett95K1Z5LloWxLEu7rqu/+MUvmkzb3UHL7LXXXqZmHwA9bdo0cx6Sr2eeeSaVJZv6uscee5jjR9cNlUURQugJEyZopVRVhm863/l8Xu+///6mFM1ee+1VtW1aPwxCPWPGDJMpfs8990xl+U6+isWinjFjhjnGEydONGV3umLjxo1VdedQqofHDG44IzjDMJX0evZcJpPBAw88YIKjARiXCLla7r//fixatMjMWgPKAbZSSvzwhz+MZ6WJckJD27bNdH1yv7S2tpo4ox/+8Id47rnnUFdXl8oHVCwWce2112LatGnGNfjiiy+amCJKDQAA06dPRz6fj908CSvNG2+8AcuykMlkUhYTrTVuueUWvPbaa8aylslkUCgUIITAN7/5TewzbZ9U/qQhQ4bgC1/4gklHQOvl83kUCgWzLFmO6PgJIfCXv/zFpE+gPjc3N5uYMMdx0NHRAQDGmmVZFmbMmFFz9l0l5DJbuHBhKrXCa6+9BiEEZs2ahZtvvhlnnnkmbNvGxz72MXieV44bK7kwV61aFVu9VDr+JxmXlLQgaaVT8UsUVK9Lli86nrVi55RWxp2olEKhUDDbqbRQkeUs6boLo7BbS1ZDfYNpi84NgJqWN4ZhGGZw02vRRPEn69atMyU3gFhM0aBDiRsppw9Qnsp9xx134LzzzktNRafBdNiwYWbGHbkAaYaYlNLE9yRnq1199dW48sorTTJF27axcOFCEwdD7kLXdVFfXw/XiYOd/cA3g+8ee+yBV1991YgbCoBOikKaiZfP52FZFq677jpcccUVAOLBuqOjw7gMb7zxRvz7v/+7CT53HMfEOZl4oITQ2H333WumaHAcB8OHD8fEiRONkEgeT8dxkM/ncfDBB/coZocyn++1116YM2eOOSfUtyVLluDiiy/GPffcYwRfGIa46qqrcPXVVyOXyxnRsnr16i7TJNBxpf23bMvsO8VpdXZ2IggC1NXVdSlq6Fqj46VLrmBKKQFUCydyFTY0NJi0E7oXrjZatnKmJMMwDMP0SjQppYxYaWpqQmtrK1588UVMnjzZ1KBramoymbWFEMaKcMYZZ6BQKOCMM86AJeMYIkroaMpwhBEmTJgArTUuueQSAPHASSU7yLpCVpFcLocrrrgC7e3t8c6ULF1vvPEGbNs2s90AYOzYsbEQKs36IssJ5SqaOHEiwjDEd77zHTQ0NJhp/GQNsaw4zmjOnDlYt24dLr/88jj7eWds+WloaEilArjpppvw97//HaNGjTI16ihmiqxI++67L5599lmsXLnSWJsq43y00nj99dcxa9YsuK6LfD4fl2Ep9c/zPIwZM6ZLS5OuCN6WQsKSFv77v/8bzzzzDIYNG2aEEB0rEhozZ87E+vXrcfnll+Occ84xQs22bdx9990AShYaFWc9B2Ir0h577GHaoUB+ErGWHZ/7D33oQwBiEbrbbrvV7Dv1Y/z48SbxaEtLCwqFQs0kpACMAO3o6MDo0aNTkxNqkUyUmcwe3tVsPoZhGGbwIko++/hNDwNyqUAszXyTVjzorFq1Chs2bIBlWdiwYQM8z8O4ceMwatSo1HpAeTCv3CZZB6jt9e+vx4YNG0xtuDFjxmDIkCEoFoupXEvUVhAEJnDacZx4yrmOLVAqUpBWOSGjLgVVJ+vXFYtFk3folVdeQSaTQX19PbLZLEaPHm1cQLZlG6EShZH5m/pBQdtUK+/FF1/EkCFD0NbWBs/zMH78+FT2bRKGqZMjhOkXEAuMf/7zn+js7DRT/PfYYw9kMpnUcps7d8ZNJi2EUYhcLoe3334bQgjU19dj5MiRaGpqQhiGxtJH54usdxTQT1a85HmgY0r15+iY03vLtpDP55HJZGrmr0pCGcYtyzLr0nZUpFLvgTjVQRCW3aiV+bNqtU/WrGQ7lX8zgw86/8kkrkk4LQXDDD62SDT1JcmBaWu3T231tJ1aom1r2Zo2KwfpnWVW2UCGRRPTFSyaGIapZKsygu9s9FZkbAtRwkKn/8IiiWEYhumOrao91xfsbLl6diQ7Y+6igQ65T1kwMQzDMJtjh4smhtnRsEBlGIZhegKLJmbQ05Vo+uCDD8zfbIliGIbpn9BEpuRrS2HRxAx62NLEMAwzsKicZNZXz/kBFQjOMFtCrTp5AFuXGGZnprezpZnBRTK1UOWs9q25Zlg0MUwXsGhi+hu9TeGytWlOtrdwSQ5+//znP1PfNTc3I5vNVuWNS/avVkqY7o7Z9k4D01cpeHqy371tr6/2fXtdM7lcDsViEblcDr7vY/z48X3SLrvnmEGN1hpNTU1dftdVElaG2ZmoFafRXQxHd3EdPSnJVKv93sSMJJehRMCVn3fVZhAE+OY3v4lx48alXsOGDYMlrap26D3l1arVZi2x1FXOtiiMujyelIy31j709HhUfrYlx7cnbfRkXaCcEHlLY4K6Wm9z+7e1r2w2i+HDh2Ps2LGYNGkSvvvd76b2a0th0cQMarq7gbY2YJBhtjdbM6gKIeLs+7a12cSdSqm4wkKp1qOK4vc9RQhhiqp7ngff95HL5Uw7xWKxZv1HIQRs28bvf//7qu8mT55s+q6iuNA3xbKoKK4wYcRN6XsVqVT5pK6OD31fKBRSVSWS/aKqFa7rpiov9IYtESW1oP2m8l1dJWjtjjAMkc/n4ThOt6Woesv2eq4GQRBfC6WSY30Fu+cYBqUaejV+6XHOLGawEIWRKYbdXWkjoFSAXcIUzk6WW+opVHA8WdidrFz0vpa7KggCvPjii1XtnXLKKeXlJOBIx9SQpPJdJAalJWEJy3ymlU7VoaxFFMa1PklcVh4j13XR1taGpqamLmtjbi9on6iPdFyp5FlPcBzHnCPbtnf4PvUW13Xj8lt9KPgAFk3MIKYnD3gWTMxAQEUKQnb9A0AIAWEJI5w2F3dC1gLbtk2x9e7ar+pPSbxQjUojWkqDOn2fbI+2mcvlahbUPvHEE01dTGojKZZqtUXbkHY3Rb1LP6jIwlQpmJJWOipYT9vtDlpvWyClhBba1F6lGqA9hY5PFEXIZrPbxDLU2/2v9cO2O6gIfRRFfZo0mt1zzKCHCidXZmTv6Ogwy7CbjtkZIIsBxc4QQRAgDEPjLqt0xygdWx4Iup6llOjs7Cy7qGT8b7Jt2p5xdSRiemg9aj95nyTXqVyX+qdUXEzdsq1UEfCuXHNSSrz44ospcUT7MXHiRERRhFwuFwu5hEtGSpmyHAsh4mLzJddisVhMxTzRMtTP5PGsZVVrb283+2jbNsIwrNoenTs6tlqXRE1J0CXPF7kW6d/K80Hrk3gsFAqp51XlcsljuDnxQEXrqVpCcj36js4P7VM+nzfr5/N5s00638ltJv+mPqtIVQnZSvdqch/CMITv+2aZ5Hr0or4nzyEtszWwaGIGLT35Nc0wOwtKKVi2ZX5Bu66LYrEIIB7ISZTQAOv7fnqatRSpgYn+bWxsjN05iV/+5IbK5XKIwsgMPEk3Fg1CWmtIIaF0HCdEL/qVr5U2gi2MQiOWkuKJIMuV67pdulUeffTReH8Sg69SCs3NzbBtG9lsFgC6LMRN61l2OdWI53mxgCoJGDquAGpataidIAgghEBdts60oZU2cUDJYGqly+KR2iSxSJ9JKVPnzXGcKusf7Y/W2li0PM9DfX19al+FiC13xtoWKXPcK2Onkn+Ta5TWSe5/JpOBUvF5DoLAHEM65kopZLNZ03/av2Swv9me0mhsbDTngkQziaCktS6MYpFWLBYRBIH5rvIZTkI0CmPrUkNDgzmnURQLuK0ttM3uOWZQk/rlySKJ2YkhEUFxGlEYob29HY8++iheffVVbNq0CbZto62tDR/+8IdxxhlnGOFQKxdZLpdDQ0MDcrkcPNdDvhBbCEhERVGEMAzx2GOP4YknnkBdXR1GjBiBAw88EAceeCB834dt2ya+yUJ6G7UsHw0NDcZC8OCDD+Kll15CsVjE5MmTsddee+HII480y9a6H7XWePjhhwEgNfgdfPDBaG1txZAhQ7Bp0yYzcBcKBSOoKtsVQpgYpGKxaKxNdXV10Fpj/fr1GDFihInrIWGQhAKl29rbjEhqbm6G1horVqzAnXfeCcuyMHHiRJx++uloa2tDS0uLWS95bp955hksWbIEGzZswLBhwxAEAU444QTss88+qKuri12sVtlaoyKF1e+tRkNDA1zXhRACmUwGhUIB2WzWuEzpugnCIHXMyMJO7dE1UVdXh1wuB9u2USwWjRijY6eVjsVTpJDL5bBs2TL87W9/w8qVK43Ynjp1KmbMmIHRo0anxGlqexJobW0FEIsuEp3Lly/HnXfeCc/zMGbMGBx77LEYMXwEgiBAJpPBpk2b0NjYCNuysaF1A5YsWYLly5dDSoldd90VRx55JEaPHg2E8f5ks1nk8/m+i09VSml6McxgIooirZTSkydP1lJKLYRIvd58802zLN8fgw96LgKoujaEENu9P77va63j63bFihV67Nix2nEcLYTQUkrteV6qrwB0Q0OD/sc//qGLxaKOoijVhtZab9y4UXueZ9anv5cvX64POeQQLYQw7dKL2n7nnXd0oVAw7UVRpMMgNK/kOgC0lFKvWLFCH3zwwaYNKaV2XVdnMhnz2YoVK8y9mXwVi0WtlEr1ida56aabdBiEesOGDVpKabZpWZa5lyvbS97TV1xxhbYsS2cyGbNeNpvVixcvNvvYHaNGjTLPkHfeeUf/6Ec/0pZlmb7Q32eeeaY59lprnc/n9U033WSOu+u6pu+O42gppbYsS996661aKZU6LsViUXueZ9YZOXKkOb90TuhcRFGkpZSpV1dEUaQnTZpk+t3S0mKOFW33pZde0g0NDea6Se5n8nxLKfV3vvMdHQZh1bGPokiPGjXKrLN69Wr9ve99Tzc1NWkhhHYcR1uWpV3X1aeccorZvtZar1q1So8ZM8ZcA7T9TCajpZS6qalJr1692vRDCKGvv/76PtE6LJqYQQtd91OmTKk5KL7++us7uovMDmRnE03EOeecoy3L0o7jmEGeBlgaIDKZjHYcxwwkS5Ys0b7vVwmAl156yQw4NNiQEKHBjN4nhQi1/dxzz2nf97VSKiXInn/++apBmgY3WpcEX3Kgpf6+9NJLpq3kGPXee++lRBH1+6233jL7RO25rmsG3x/84AdG2NGLaG9vN4Kprq7OtOu6rs7n80Z8dMe0adPMPh177LGpY5rs5+23327W8X1ft7S0pIRv8hjQcafvxo0bl+q31lofeuihqeXo+7a2NrNMFEV61apVVdfvK6+8YgQVkc/njeB1XVd7nqevvvpqow+KxaL+9re/bfpKwiZ5HumaTH52yimnmO3Qv0opvd9++5n1Tz311JRopG1ks1n94x//WGutdRiEetGiRVXXQPJFQrJyf7///e+nxNuWwjFNzKCHY5qY/oBSCk888QTuuusu46IrFAomtoaCkMkFFgSBcbUdddRRqeBpCtBdtGhRHCtlWSawWJdim6IonmLf2Nho+iCEgOd5UEqhoaEBBx98MBzHMTFAFP+0cOHCqv6TC5yCck0wcSJgu7m5GVEUYebMmSYWJRlk/NRTT6X6AcT36W677WZiWXbbbTdYlmWSTCqlsGbNmqr+UBDzGWecgbq6OgRBgHw+D8uy4Lou/vjHP8Kx49ikWi4mQlfE1Tz++OPGDUaxWRS3dOqpp6JQKJjvOjs7TRwPABx77LH4xS9+gYcfftikUKD2//nPf8K27ZSL7YorrjCJHLXW+Otf/wqtNeqydeaakVJiwYIFVf1+4IEHIC2ZivWxLAvPPf8cLMsykwvOOOMMc7yeeOIJXHPNNak4IQC49tprsWjRIjzyyCP41Kc+ZVycURRfD7/+9a/x/vvvo1gsmnUqn7u/+tWvIIQw1xv1PZ/PY968eXF8nYpwwgknGHczxb9dffXVePjhh3HZZZeltpEkGYi+Vc92tjQxg50Pf/jDNS0Jf/vb33Z015gdyM5maers7DSuKcuyUpagefPm6SVLluhbb701ZSmh5VzX1StXrkxZmnzf12PHjk253ZLWqUwmo7/xjW/o3/3ud/qEE04w7SXdfwD0fffdp5VSKavFpEmTqixNKFkBHMfR3/jGN/Tjjz+ujz76aC2E0NlsNmU1c11X33///VprrXO5nNY6tlDMnj071R4AXVdXp7WOrRDFYlGfffbZxvJG+zNt2rQqS1N7e7tev369WSZpETv44INTrsbuUErpadOmmeNClrjDDjtMv/POOzqfz+u77rpLz5s3TxcKBe37vr7mmmuq3J0rV67Ura2tKVfYmjVrjPWF9vnOO+80++r7vm5sbDTtnHfeeWZdOhdhENa0pk+ZMsVYCZPWn7PPPtv0yXEcs/+FQkG3tLSkLIMLFy7UYRDqXC5n+h1FkV6zZo2ePn16ymJ54403mu9p2aSlibZ52GGH6ffff1+HQagXLFigTzzxRLP8lClTzPkCoCdNmqSVUjqXy2nf93V7e7tub2+vGW5xww03mH2ptNj1BhZNzKBn7733rjkwvvbaazu6a8wOZGcTTbfffntqkKX4jaeffjolWAqFghFW5G6SUup33nnHDBpKKZ3P51OutmTbTU1NZru+72vf9/W9996bcp/QsnvssUdq+8VisUowSSl1JpPRw4cPN30Ig1AXCgX94IMPVgk9AHrixImp/Y+iSA8bNiwlbgDoWbNmpfp61113GfFCQqOxsbGme27fffc1+0/btSxLr1u3LjWwJgf6Skg0JYXs/vvvX+UKpeOotU6Jzkwmo9vb26v2lUi6y1zXTcUjtbW16TFjxmgppW5oaNAAzDmg/nZ2dta8hqWUurOzs2p71K/GxkZ9zjnnpLZF2wegp0+fbtanNsidqbXWa9euTYnbq666SmtdFsFap0UTAD1jxgzjQkvuv+/7etWqVeZc0fLkFibxFwahzufzulAobDPRxO45ZlCjtUZDQ4P5O/natGmT+ZxhdjRnnHEGWltbsXLlSvzud7/Dj370IzzyyCOxK0uXp4G7rmtKlORyOQDlnEmEipSZ3UbuIcuyzL/r168HELtkHMeBZVk49dRTcdBBB6XyFpFrMAgD4/prbW1FXV0dLCsuaULpEHzfx/Lly00fLNuCbdmYPXs2jjjiCAAw/RaltARAOQeQ7/v44IMPUvmUAGDu3LnmM8uycOyxx6ZKw4hEfqFkHqu3334bb775ZjkXUCkZ5mmnnYZhw4al8lrR9pKvys+S/Pa3v4XjOKkcVZQ36PbbbzcuNcuy8PWvfx3ZTNYcbzoO9HekItx9992pNANPPvkkfN9HXbYOl112GRzHMeezvb0djuOY3FBvv/22cb9qreF5nnHHvffee+bYKqXw7rvvAohTC3R2duI//uM/kMvlzPIHHnigcZ/dcccdZkahLuXWInek7/sYMmRIaubmXXfdBaCc0LQWjzzyCCzbMi40XUoqats2HnroodR6S5cuNdu2bdvkcnJsB7Zl4+GHH06lnegrWDQxDMP0A1zXRUtLC0aPGo3DP3k4Pv3pT+OII46I0w9EZXHzl7/8pSqvDxAPVkqXy4i89dZbZkBzHAdRFCGTyeAHP/gBXNdFFEawbAvFYtEIjUsvvdQMUjSorVmzBplMBkAswF555RWTTweAibu6+eabYzFVig8KggDSinP4nH/++aaf1O93333XiAsAWLt2rZmmT/EpmUwGhx12WCo+ZtiwYWawJOEURZH5EUT9mjlzJorFInzfN0LCsizcdttt8f52k528FlEUmeM5YsSIqu8phmvp0qUmVieKIlxyySWmZh7l4XIcB5GKzLk5/vjjTX4upRRefvnluEyIbWHu3LmmbSklfve735l+Cylwww03mD7Mnz8fe+yxhzmOt9xyS5xvqRQjd8cdd6TO2cSJE1FXVwchBJqbm/GHP/wBra2t0Fpj2rRpRtyQWJdSoq2tDZa08MEHH5i4JgAYMmSI6RfFZtH+0HnaZZdd4Pt+zWSeCxcuNOcgm83igAMOMDFNtUTYrFmz4HlenwsnztPEMAzTD6DBVEiBJUuWYOHChVi5ciWKxSLefvttrFmzxgw2tXIK1dfXpwJoFy5cmBpMPM9DLpfD/M/PBxBbgkhQUDmOmTNnGoFF/yYHLK01Hn300aqM3o2NjTj33HMhRTkQnTJnu66LY445pqYooc+CIMCiRYtMuyRkCoUChg4dmiplQlaRZBtKxZY1OgZPP/001q9fb8QgBbJ/73vfM4KQtk0JPTeH4zjwfR/Tp0/vdplXXnklTohZyod07LHHYtq0adBao1gsoqGhAe3t7SgWi2hpaUGxWERHR4cJJrcsC2vXrjVttjS3mPPoOA5+9rOf4ZRTTjFJMu+9916TSHT+/PloamrCTTfdhDAM8ctf/hLXXnstMpkMgiDAz3/+c5Nvavbs2alcXCRmKG8TCT/P89Da2op3330Xv//97/HYY4/hmWeeMdY92jb1mXKMUbJP6vsBBxyAQqFgBHil0Hnrrbdg2zaiKMJee+1lhFryOqm8dsaNG4fXX399s7UUewOLJobpBnbNMTsK455I1FI7++yzcffddxvXFw1K9GuafnnTgJm8fjOZjBEQUkrj7qCZbEop7L777vGMqjCCtKSxOElLQmiBhx9+2Ig3mmlH26ZB7KmnnjL9IGtCS0sLMplMOUFnybJC7fzqV7+quf++78OSFmzbxoMPPmi2R27BoUOHwrGd2JUmyyVO9tlnH7z88supmW1Lly7F7E/NhhACn/jEJ4wIAWAyeH/+gs+b5emY90QwAWUL1saNG2t+T9ad9vZ2U+6lqakJf/jDH/D000/D9/1Un+hY0exESlwZBAH+8Ic/mGMkpMA111yDr3/965BSYsmSJea7IAhMNm6tNaZOnYrjjjsO3/ve9yClxLp161KZ3VevXm0sbpdccknKteo4DlzXRS6Xw1/+8hdcfPHFeO2111Kimaw+dNxJACqlUklT6TySIFNK4YMPPjAZx6lPSVpbW015FLoG6TqnzOlJojAyWen7EnbPMYOermrPJac6M8yOgOJqVq1ahaFDh+Luu+9OlZCgX+qUZdu2bfi+b8qsAPF1fcIJJ5RdVqU2//GPf6TaaWxsxGc/+1lT1iIZU0L3xLp16wAgZSEgcUYD7Msvv2zcL5QK4Stf+UoqToWsKkEQwLZt0y61R4Mj9UUIgccffxxALE7IAnLqqafGn4XxwE3192bPnl0+hqXt/f3vf4dlW3j44YeNRY4G50wmg8cffxzSisvBVNbX25xrrhaVz5Pk50Acf9XR0WHigSq3QW5Q6muhUDDnftmyZVBKGWvOnDlz4LqueWa9/vrr8DwPTz75pBHXLS3Ksb0uAAAgAElEQVQtCIIAM2fOBACTDmD58uWIwggPPvigsVBKKXHggQcaIZ6MkWpsbMQnPvEJLFu2zAgmx3HgOI6puQcATU1NaG9vhxDCxDFJKY1Yqjw+Rtyp6h+qopTdnY7TW2+9BSAWaSQqhRSpF7mBt+TcdQdbmphBS0+sSEkzPcNsT0gw+L6P8ePHm5gZKm/heR6KxSJc18Xs2bNx2GGHwbZtXHDBBangZ621yfkjpUQQBfhg3QdmO3QftLe3429/+5tpO3nd031w3XXXoaGhweTCcRwH48ePh1YakYqwcdNGuK5rchGRC2/x4sW46KKLUvuXzWaNW+zHP/5x1f7vsssupm9tbW1V3wdBEFuMLAlXusblF4URJk+eXHV/L1iwAF/72tcwe/Zsk2sqGc9DMTI0CLuW26f3virVbEuWT1FK4cknnzRup2SxX8dx4txEUWTKwniehzAMMWLEiFStvHHjxhmhbNs2Fi1ahClTpuDb3/622c6FF15o2m9qajKxSTfddBNuvfVW3HbbbWbiwEc+8pGa/bedWDIkLUqyVDPukEMOwYwZM3D88cfjgAMOAAAMHz4cURTVjFGKwsjUKAQShXWt2rYcuvbz+Tz23XdfY22UQtYsokxtUsxfX8GiiRnUJGcNdfU9iyZmR0AuiHfffdc89JMz0nbddVcsXrwYkyZNMhadXC6HL3/5y+Y9ccwxxwCAcb089thjNa9rSlZZi9WrV6Ojo8PUOaPZYZT8sOgX8eyzz6JQKMCyLHieZ2qsHXrooVXtRWGcPPP999/H6tWrU8kHAeDzn/88LBlbC1auXFnTEkPtSinhhz5c20WkoprbGzJkCF599dVUgVxyeT333HPGVSiFNIHhfQnFCqlSUVuqhzZz5kwTx5MkWZiWjmnluaFZca7r4qSTTsLixYvR0dGBn/70p5g/fz6WLl1qrHann3462tvbkc1mcdZZZ+Hmm2+G1hq/+MUvcOutt+Kxxx4DEMe2ff3rX6/qz/XXX2+2ScLuoYcewnHHHWeuyeQ5IisU7XMQBKYeXhAE8DzPvJKWy65+qO6999545ZVX4DgOWltbY7exkMYSWut8ua5rkrT2FeyeYwY9LIqYnYWk+4piN+6///7U7DQqorpixQpMnDgRAEwW61tuucUMUMmBhGYu0Uy4xYsX19z+bbfdZqxUlVxyySXmO7J6RVGEc889F5ZtwXM93HXXXZBSmqBych3ef//9Ve1RXNP5551fs/L8SSedBCHjGKzf/OY3Nfu7yy67mMGZ3INCxrOw6HjSvytXrsTxxx9vhGddXR0KhQKOPvpoTJo0KY6fsqxt5tahvuy7777Gjaa1Rj6fN7FKFIdEqR7o+Hmeh8WLF+PZZ5/FmjVrTPwOucSCIMDVV19tRO0777yDF154wYiRKIowZcoUNDU1wXEcnH322QBgssr/6Ec/Mq7KYrGIY485tqr/v/zlL03mcaUU3nrrLZx44onG0pOcSUeuRBKo9L2QaXclpWMgKxv1qRbDhg0zlrK1a9ei6Ber0hMkCYIAy5YtS6Wv6AtYNDGDluQv21q/UijwkGG2NbUe+kA8KI4cOdIM6JRriPIaAeWZZBs3bsR3vvMd+L6f+tW/2267mWV830cURvjtb39btS3btvHqq69i3bp1RnQJIRCGIZ577jk88MADAMqDWqFQQEtLC8aMGQMgFkGPPfYYtNbI5XLGGuU4DpYtW4b169eXcyKVcuo8//zzeOh/HzL7QdPRGxsbMWXKlNjtF0W47777qvq79957p2e5VcRYJcu/AHFc2KpVq8yxyOVysCzLtE1T5pNUxt1Uxih19Vmt72ifTzzxRBNU7TgOjjvuOGQymVT6h6RwKxQKuPXWW3HiiSfioIMOwoc+9CFc85/XmH2XIs5jtPvuu5tZblEU4fDDDzcWlsmTJ6f2a7/99jOWQgC49NJLUV9fDyEE9txzz1QcG73IckjbHT9+fCrmLBn/lMlkcNttt6FQKBj3HblszfEouStpEkJ3wkZrjcsuu8wIZCEEvvvd76JQKBgXJV2b5OZ76KGHjJuzL91zLJqYQQ8LI2ZnIWlpCsMwNYWerAZKKfzqV7/Ca6+9ZgaJP//5zxgxYoSZZUXJCqWU+MhHPmIGz6amJgBdxwhlMhmMHj3a5EiKwgg///nPceCBB9bs7x//+MfUe4qTIVEQBIGZVbfrrrtixYoVyOfzyBfy+MlPfoKZM2fWtBA888wzAGByFb344otV2z7qqKMAAFJIY7lJ3ssf/ehHzTGthRDxrLPm5uaaMTd9jbRiC9yJJ55oxKhlWXj22WexcOHC2CoTKeTz+dSMtMbGRnz+8/GsPsdx0NbWhvPOOy/VLi03depUuK6LbDZrUim4rosLL7ywqj9jxowxx4smEmit8ZWvfKXmMaNrTWttBBQJIYqfI1avXo3zzz8fnueZmDG69kgYk0XS87xUQtauEl8eeeSRph+FQgFXX3011q5da1zRlItLa422tjZ85jOfMfnK2NLEMH0I/cKrhNMNMDsSy7JgSQtDhw41Ab5Jy8r06dNN4sEjjjjCTOHP5XJobm427Rx77LFGfAHAm2+9mbIk0Yvie2zbxv777w8pJerq6zB//vya/TvooIMwadIkM9NsxYoVAGKLjWVZJqCcAtYBYNKkSRg9ejSam5sxf/584+6hxJ1AnHRy8uTJiMLIzAirZemZPXt2LDxsq2bMyqxZs7o9vo7j4OKLLzausG1NctbczTffbCwgQgh8+tOfxpe//GUorZDJZIxr7uWXXzZJS4mpU6di9OjRNbdx9dVXw/d95PN5Mys4iiKTJT3JxRdfnMrnRdaYz3zmMzVdZGTtpL8/9alPGVFCMWDFYhGPPfYYdt99dzO7j5Jy1tfXGysQWd3ItZgMyCc3Xa3t33bbbeZ7IQSmTJmCJUuWmEkJDfUNeO+999DS0hJnTK+rQxiG5lhUsiXPeBZNDMMwOyFRFAfNHnfccamp3QBMFXqysJAFgAKGN23aZKaJAzBTvKMwwrPPPlsz2R9ZDZKzoqjdWss//fTTsSWh5EpavHgxhIgTTFJMCyVETAoEsgaQxYDYuHEjRowYYRIjRirOFv3888/XHEinTZtmZrrVcr+Qpakrfv7zn5sYpu1pbQ6CABdccAF23313I16DIMAtt9yCTCaDj370ozjhhBMgpcT06dNNagAgvib+9Kc/1bTGBEGAY4891kzx37RpU3zOowijRo2qWv744483s+Uodmq33XbrUkjceeedqevw6aefRmNjI2bNmoWbb74Zc+fORXNzM4488kiTiRso58567bXXTAoCumaSltXNCRhLWjjnnHOM25WSa5500kkYPnw4Tj/9dEyZOgVjx44153Pjxo0YOXKk2U+iVlqDnsKiiRm00I3a2NjILjpmh1IrDsayLGgVz3b7zW9+gyAIjAslOZACseAZO3asceFRTJNSCkuXLk1l6L799ttNThza7uTJk3H77bebgY5cHuS2Sg5qBxxwgLEOAPEsOCEEfvGLX6RmgUkpsdtuu+FnP/uZydGTLElCbZI78ZBDDsG7776LQqEAz/Niy5rSeOyxxxCGoZllRa+6ujqzD7WsxXvuuWfVZ5TsMIoizJ071+STouPW0wGcjgmVG6ks1UHCs/JF1kClFP7+97/jtNNOS/VNKYUXXngBS5YsMTmNgHLc2jvvvIMhQ4Z0meE6k8mYmXnUx4MOOqimJW7ChAnG8kOcf/75qK+rN+smX/vttx/mzZtnAukpdmrJkiW4+OKLce+996ZK51x66aW47rrrTNLOIAiM+5b2h/YZQMraV+v40ay79evXY9iwYak22tracN999+Gdd94xQh+Ir7O1a9eaNBiUqFTp9Gy93px3Fk0MwzA7GZTkT2kF27Jx1FFH4ZlnnkklrEwOhD/5yU/w9ttv484770xlSrZtGy+88IJZL4xC/PWvf01ti6a9n3XmWXjuuefQ3NxsBg8KsiXx9Nvf/hbPPPMMVKSqXFpLly5NJYQtFos47rjj8NnPfhbLli0zMS11dXXlxJWlAfjJJ5/EE48/gWw2i0wmY5JUCinw+uuvm30id9L06dNhSQsqUl3+4Bk5cmTVMaX9ffXVV3txNmoThiEymQyKxSKGDh1q4nYOP/zwmpavygE5CiPcc889+Otf/4qpU6ca8UXHmzK7e56HG264AVpr7L777kakVu634zhQkTK15shSeNlll9XsQ6FQwMc+9rHUefzsZz9r6hPW2t+f/vSneOqppxAEQcr9lxQgp59+Ot577z1861vfwrnnnms+dxwHd9xxh7GuAcDQoUPNdXz00UfHgd1R9fajKDIxYEopvP/++3jwwQdTx4BSRgRBgKOOOgpRFOHKK680lry99trLXMdduQB7glCqbKfiX9vMYIJu9DPPPBP33HNP1ff33XefyTjcVe4QZuBC10flr3GiL4NLk9ujv5M1z5KD5KpVq7B69Wq4rouJEyeioaHBLEvxIlRol+rG0fR+SmxIgbskXP7nf/4Hxx13XBybojSCMMDLL7+M5uZmRFGE4cOHmyK0NKOLBIxSCu3t7WhpaYndXYm8Z/feey9mz55tao3lcjmTibyjowOTJ0/G8OHDzT5XxtJQXEw2mzUCrlgsmkSHlFG81vn55S9/ibPPPjuVBFKpuH7eU089VTVwVraxuftdKWWOO1lSSExQv7o6v8n2yW3qBz7efPNNU9/N933sueeeaGhoMCKqvb29alZgZfsmH1SkIC2ZenbRZ8njTQJbCmmuk8p+0vqUZwmIg/5XrFiB+vp6OI6DIUOGYNiwYanlqQwOzcajazB5zuhz3/dNGZVk8eMkuVwOdXV1JoYJANasWYMPPvgAvu+jpaUFEyZMMMtSvjAAqbp2dP6S56HyvHQFiyZm0EIPmbPOOgsLFiyo+p5F0+BmR4omIO3Col/z9IudrFA00CXboF/kNEMLgMlv88Ybb2CfffYxOZbIurF8+XLstttuqTpkAIw7kJar1dcwDLF8+XJMnTo11X8pJdasWYMRI0YY4QbACIBkjbEojBCpyFhXKt1PFGScHPRIiHWVnJZcZhT3RO6ud99912QbJ6sGCc7K498dJMSSWb4pf5LSarOiqVAoGGtN8vlC+0/nu6OjA01NTeZ41Rrsaf3kNUvkcjl4bhx7lgy4BmJrIOVTov5LS6Kzs9MU5qVtJYVYctskRqh/plZhxfGjPlb2v9ZxruUqoz4kRRddE+RO9jzPuHeTopBm6yWvw+Q5rNxOd7B7jhm0JG/aWr7sZOFNFkzMjoLcbLZtm8FZyFIm+1LyR4rJoWWBcu0yeu84Dh566CEzANMy5PYBkGoLgNlmLatMZ2enESW//vWvq2a3ATCz+JK17Mw+lNwmQDxtnmYHJuN4KP6F4rSS/aN1kkHwQgi88MILsCzLuAFp5p4QAqeffjp22WWXmsk7e4tWCQtOok/SkjWtJJXHh2YOVj57koJJSmkECT2nkm1QLbbKmLhkjE42m00L60QQdDIpJSUG1VobwZQUY8l+Js8DCRRarqsyKMn26G+t47QWURj1KFcT7SO9p2uCsqVTIk1aLpneQOu41E9yP5LP9Vouz1qwaGIGPSyImJ2RngSlVi5fOahW8uijj5oEhWRdGDdu3BZZzWhwUkph4cKFVd+PHz/eDGqV+5IM/jXCKWEdScbI1IKsHjQwXnDBBWhuboaUEocffrgRUYQQsQvthz/8IQCYGm6WHc+e06pnQcBJki7PWkkxtwY6f0mrW2X/crlcSoB2B10btm0bod3d/hqrUsJ9F0WRqYXYlfW11jZrCUOttKk7R+egUoB2RVcpYpKoSJn+k3VORQqWtLrsU0/h2nPMoKarmTcA52li+h+1fo0TURiZWmRAuY7dCSeckFqnp5D7KwgCvPTSS1XrU7taaUD2/Y+TZNbs5DT89vb2lBijxImLFy/uMh5oS0jmoaoVw7StIddePp+vWbuuFkmr+uZCDkggkfBNFore2v21bAsWLHP9aK1hScvES20tdG2kUnXItJDb0uuRLU3MoKY7YdTXMSsMsz3o6pd0Z64TAEyWZprhRTmBeosQIg4aL2X8rmTWrFkmhqRygKLt0RR86ndvoJlQhULBuNsoOWJlGZhTTz0Vh368XMRX6ziVA7mGasXgdEfSjUh10/pSFNL5c123y9lySilEYWTcfD1pD+g6Rq/WOiSYCMryvrUCMel2JRdyXwkmIF2SJ+mupgkWWwNbmphBC91ETU1NXQYjMsz2Ylu7iZOJFIHy9T1t2rQt6o/WGmEUoq2tDbZtp0qRCCFw2GGHmeWS8TjJZZKWsZ78+ie3YlJQZLNZrFq1ysRzUdA6zWS75pprcMkll9Tety00GyRjh6RIB8/3BT25FoQQEFbPjlsyLqmrAOxagduVn1dOCNhSagV59yWVfaeYMCHEVls9WTQxg5rufnVsrRmXYXYmKCFgR0eHCfRNltvoLUIIuK6LXUbugo0bN8KyLFOANTklnNwvtawxSQtXTwZ+yltEaRUoPqetrQ2rV6/GihUrsGbNGhSLRcyYMQN77LGHyQ/VVZtbirHcdBP4vLVsLrC6N9Ry2fZk+a7e90VfthWV+1op/LYGFk3MoIZyrNSCBRMzkKABpKGhAUAc45QUTL291im3TrFYRHNzM4IgMIV6AZiSLn1Z1822SnXHZLmqfT6fRzabxYQJEzBhwoRurcZ8PzNbC8c0MYMefpAygwEVlcuiKFVOcthVVfnNoVU83ZzSCiRzFUVhVI6dKr3fWvdVEASwbAu5XC6VZ4im5ANl6zAVKPZ932yb73OmL2BLEzNoScZR1Hqotre376CeMUw1WzvoS0vCtdyq3Ds0i25z7phkaQ/XdY21p1IMJTNOA0gF+HaVI6cWlS4WyuOUzFuUrPmW/JeWTQYs93WM4vZyMQ1U+uv+saWJGfT0JOUAB4Uzgx2aOeU4DvL5/A4f9PieZHYELJqYQY2UtbP3AvxQZpgkVNWeslkzzGCE3XPMoKerX8wsmhimDJWjKBaLsC17m84aYwYu/T0on0UTM+jp7VRchumPbO0Ucgq+pqrxvd3elrItp74z2w/K/k2pJ7Z1rqZtBf9UYAY9XaUc4IzgTHcki5ay4GaY7qHM8eTi7a+wpYkZ9GzOPcfTlZlaVIptFk8MUw09O2vNdOyPsGhiBj3diab+fHMz25arrroq9Z6FNcN0T7FYxLe+9S2oSPXbmDgWTcyghmrP1aKtra2m751hAOCaa67Z0V1gmH4D1Qy89tprIazqAsT9hf4p9Rimj2BBxDAMs/3o7+EOLJqYQY0Q3deeYxiGYRiC3XPMoKerXz08e45hGKZvGCjPU7Y0MYOe7lIO9HdTMrPlJOPZ2OrIML1DCJF6DZR7iC1NzKCHLU1MVwghcNVVV/X73DIMs7351re+VfXZQBBOLJqYQQ3HNDFdQVbGyy+/HJZlwXGcHd0lhuk31BJNAwEWTQyzGdhFN3hQSpmp0SpSEFIgk8mY76Io2sE9ZBhmR8KiiRn01NfXA6h203V0dEAIAaUUi6ZBgNYaWmlAloSyTNcklFJ2aZVkmMHMYIr94ycAM2jp6Q2u1cB/EAx2KPu7ZVvwfR9AOZCVYRiGYEsTw4BLYDAMw2wtyefoQLU6saWJGVBs6Y1KcUtkcWARNbggq5Lv+3BdF8DAfegzDLPlsKWJGVCoSMGyLfM+6WsnNxsVihRCoFAooLGx0bwnaABVSlXFtlS2TUgpU4Mu078QQphzx7FLDNNz6Nm5uR8aA8HlzaKJGTDQDRsEAQDAtm1zgwohatpVPc9DoVBIrU9/23b59qiVs6ky1klBwXVdBEHA09MZhmEGICyamAGDEAKWbUHqsjpKutq01giCAL7vIwxDZLNZdHR0oLOzE57noVgsGguDUgodHR14+eWX0dLSgiAI0NbWZr6jbOH0NxDPwpsyZQo8z2MXH8Mwg47BENMklCr/XOaHPNOfIdfYypUrMWPGDGzYsMF8R7FKUkrYtg3LspDL5WBZFjzPQz6fj2dPWbFrj/LxuK6LMAwBVN8flS6c//u//8NHP/pRFk0Mwwx6aj3/hBD9Prs+O+6ZAYPrulBKYezYsZgzZ46xAEVRhMbGRriuC601isUicrmcycFEggkoiysgvsGDIDCfVb6UUgjDEFJKTJ8+HXvvvbeJienPDwWGYRimNmxpYgYMxWLRWJs6OjowduxY5HI5SClTMUlbep3XWo8sSvfccw/mzJnD9xDDMAzY0sQwOz2e56GhoQGe56G+vh4XXHABAJig7L6euUElN6ZOnYqTTz65Xz8IGIZhmM3DliZmQEC1wpLpBtatW4eJEyeacihbS602lFJYsGAB5s6du9XtMwzDDBTY0sQwOzlJwQQAQ4YMwaWXXgpg2+Td0Vpj8uTJOG3OaX3eNsMwDLPzwaKJGRDU+uViWRYuuOACjBw5cpuIJiEELr30UoRRWDOPE8MwDDOwYNHEDFiiKMKIESMwf/78bSKaJkyYgNNPPx2e53EGaYZhmEEAP+mZAUUyJYBt29Ba4ytf+Qo8z0stsyVUWrO++tWvoq6uDgAQhdGWd5phGIbpF7BoYgYEyfxKSaSUaGxsxBVXXJFKcLklgYhkTXJdF7vuuivOP//8cpsW30oMwzADHX7SMwOKpKWpo6PDfDZ//nyMHTsWQgg4jrNFoolmffi+jy996Ut93XWGYRhmJ4dFEzMg0UqjLhu7zoQQaGpqwoUXXgigdvHdnmBZFrTWGD58OM4///w+6yvDMAzTP2DRxAxoqNwJAHzpS1/CmDFjEATBFgmnIAgghMDXvvY1NDY29nVXGYZhmJ0cFk3MgICyfUspIaWEZVuwbMt8Rlx++eWmPlxvkVKiqanJZBpnGIZhBhcsmphBxbx58zBixIjUbLqeopTCZZddBtdxt3gGHsMwDNN/YdHEDBps24bruvjmN7+JQqHQ69xKo0aNwkUXXYRI9e8yAAzDMMyWwaKJGTSEYQjf93HWWWdhzz337PX65513Hurq6mDb9jboHcMwDLOzw6KJGVS4rgvP83DdddchiqJUioJKKEGm4zhoaGjA/PnzAcTxU4VCYXt3nWEYhtnBsGhiBg1SSERhhI6ODpx88snYb7/9AJSDyKuWlxK2bSMIAsyfPx+77LKLWT6TybCLjmEYZpDBookZNOTyOVi2hbq6OgghcMkll8BxnC6DupVSKBaLaGhowIUXXogojLgwL8MwzCCGRRMzaKivr0exWISUEmEY4jOf+QymTp1qklbWQimFc889F7vtthukFZdfoWV5Bh3DMMzgQiilzJOf3Q3MQKZS5GitsWjRIsyZMwe+7wMo3wO0rOM4WLlyJUaNGrVZkcT3D8MwTEyt56EQwpSj6q+wpYkZtAghcPTRR2PGjBk1v/c8D/PmzUNTUxO75RiGYRi2NDGDh0pLkYoUpCXxyCOP4KSTTkr9AqJl33zzTUyaNAlhGG421QDfPwzDMDFsaWKYAcjGjRsxa9YszJw5s+q7efPmYa+99kIQBHAcZwf0jmEYhtmZYEsTM2iJwgiWbSEKIzz1x6fwyU9+0mQJF0LgjTfewITxE2DZForF4mZr1vH9wzAME8OWJoYZYAgpEIURIhXh44d8HIcccgiUUlBK4YwzzsCYMWNg2RaCINjiIr8MwzDMwIEtTcyAIhm31JPr2fd9WNKCZVt49tln8clPfhL5fB7Lli3Dvvvua5Zx3c0X6eX7h2EYJmagWpq4iBYzqHFdF0opRGGEmTNn4v/9v/+HcePGYe8P7418Po9sNpvKzcQwDMMMXtjSxAwAVNrCZP6s8D5LUVpalb6VSCYSiKIIL730EgBg+vTpkNJKr96FbhKo/IJajbevS7cV31+Dja1NU8HREzsSPntbx0C1NLFoYgYAJdEkVEIwAdASqUdXhWhKfqehoZWG0gGA+F6QMj1jrivRBCSFWjeP2goRxgx0eNjtz/DZ2zoGqmhi9xwzIDCiRUWlPyQggPjRl358ld+VH4taa2hoWFbJOlQSUMmbW3Vzn0tqVah0f1JCS1T1hWEYhuk/sGhiBgZSlDSQjN1hWgKiJFC0gBIlDRUvXLGyitcRJGoUlOhNDJNMCCpZ6g5ZvaqtWgzDMEz/hEUT0/+o0jMlq5KUgIoQRgqQFqIotiApCKNZhIzdbCnrsJAmJoosS6r0XmpZZUqWVaZlgajUrwgalhAQWkBCQUJA9kqAMQzDMDsrLJqYgYEG8vkiYElkPQftRQXLkdBCQItYZ4l4MWhRbffRJSEU/19CiXIQd6VEqrQdKSAWTQLQELFDUEjYEPHMu9Ia/deLzzAMwwAsmpj+iEiEaGpp1Ei2zkNbQSMKALgSRRWLGSNyEgafSgGjSwuRR49Co4QoW6XKs+Cqu0SRVFoDlohvLC0ENARsyHjbgl10TJnqCQldXR/l2Z5Mf4Rd9AMJFk3MgICsPV/52pXY1BnAq29CUUtEUiIqqR2rpIy0LkkcXR6GtNIAyq64SEXx9zL+TCWEWtJdp0vB5lprCA0IHUEggKV9/PzH34WCRKQVIDR47tyOh8Tt1s6M6hm1B0n6NLZ8RiB/M1sit47kOdU1PustSae66MHnld9ThKRVipNkBgYsmpidnuTjpmoYEmXBlIuAzsBCQXiwsrugta0Ima2HFoBfyENCQej0w0um/pKQwiltMwIEIMhNl+iFKLndhNSA1BAyigVTINGY9dCxcS0aPBcK5QeoVjV8gsx2IXnGO1UIW9rIlz4nIRshthJ2R6WFsTenk1zDYQhkLCAr4hakuUJkYrQlEcWxcD2F7rUI8bFuD4CsAwQA8iHg2GWB01txGv+cKhMl/paITxfJIi3ibdKc3QyATKThWHzzDxRYNDEDAg0gFICyXVhuMxqGj0PzuKHQjgclSsV5EcK4OmoFk2rvTEEAACAASURBVGvbFOxVqhSHRCNlpUsQscVKyRAQAaRWsCMPduQjDDWU/wEilNx0moZMZkehARQAXHjpFWgvAkp4cOtaUPADCCVh2wKRUlAqNDMhK6+RqgkBvTqlEr4foj7rwY1COMjhlpu/BXNdaA2LbU1bRQSNgopgSxtf/Y9vYEO7DzfTAGFn0J7Lw7ZpuFO9OndC6nTCXGGBZJTQCrYOzXeBjF9KKFhRASPrXVx/5SVocm04DtuaBwIsmph+Str+VMo2gKKWUNKBU9+EQHrwwzjdgCU9KDipYanqwaklZOkXIcWbCElrJOISdDzbLhIRtA4BEbv5vEw9VC4PP5JQhdLyujTYah4QdxQS8a//IoANnQJW/RDkfI0NbSEcrwGARFgIAEvCthKPxIpTViVqenFKBQDpaEg7g87OdXB1aVICZDx1QCjoKttVeaoBXz2bx4YApEAegA8HcDz4oh4F30Lo1COUuktB3B1C6PLx1zJOUlv64SRQFk0KNiIRiyaJELYsYFXreiDrIUJs1WR7U/+HRRMzoPC1gO8rFHwF7Wnk/PhB6XkOUs64Lh6aUpNoihFG7CQedzq+bbSWUBKAACwotHcGsCMBLVy4Xn1p/e63x2wfNIBCBFj1Q2BlWzB+wngIrwlBBEBLWLZtMsZ3hdwK6SI1oPJFyNDHej9Ag5OFQiymyvaHri4SHmp7go8ICkCogUIxgpJZ7PGh6djkA3VNQ1AM/C1oVQGK0o/ECW6jRKUBqRWslGiyEUlAIsQ7b7yIukwjAg0UwgCu53S1EaYfwaKJ6adUDyQKAIQNx8tC2g5CYSOTcU2sQWpZAdRKnxSZuJJ4KKs5jFGcEwU0lLAzHlRnDqESpeDPUk9ZMO0UaABBaKG1tRPDxzUBbgM6NnWioWkIikGYEMi1ibbCxWopwHI8ZOwIuUBC6rDUWhwNY0GX4uZYIPWcdHyiho7j0gRQVArKzaAt1PCaRuKDzjwsx4FKHF8hN3+spVZAKbcbaWYlbJOSRGoFCyGkBiJhl4QTYMFHp6/R3FAHaQGexYJpoMCiiel/aFmOMdLSGAgUUMqLVIPS8snJvzXHSF3xIBWqxvf0mYpn1QkFocjyZCES0rRND9vKZpjtj2UBUtpoaWlBFGkUCz4yDUMRRhKBdiCE7jYR6daIJiUl/CBAJutCuy4KvkL1JcFT07cGCcASIh7UtITleAgUEAYBhFcXz2LVybiizVsOo9Ls2PK5kiU3atmNL0vLhbChBaW0VRg2dATCjlVwwWd0IMGiqZ+jE1N++nMRxK2FHmNxasn4JaFig72IAza1DFMPr6rxUde4HZKz7YQqTYOixJcKEiGAOK4p0hG0VNBJhUQ5nqSC4EfnDkMAkAootLUCoYBUESwBQMfDXjyzUkMkLopKUS0qptf1RkJpoSCyNjrCPHJBHiMyXkIiJScKsHDaEiQASwOWlghlPOu1UMxhdH0GBSngFwpwbJdy9wMAROUPpG7bL8coqkQKgeSMXCl9KNiQsGFrhVzrBmTzHXAU4PHpHDDwqWT6H12YbSQSrjChSkGfJRElytah2i9qt4vPRa33pbeaLEoKutQBk9dJ6HRbzA5DaGBoSzNsacG2XHjZOnR05OLvKIXEVm1Adf0CEEYhLMeBdD0EKixnGEBS8DNbjJawSj9NJABpW4i0QqFQgOu4Nd3xPUHquG1jha44rzphWY6D9kNYSsGxbIwcPiSWxFFYo2WmP8KWpn6KrpFUptZnSfqrJWpLlD2VTjGFdLXc/C/LCjFktm8K75JJ3i5nB1cSsmSp0IggZYQIUaKWXSyaBM9/2uEIARQDH8rKQkkHnX4Ep64eSoXQWiGO6t9MA8m3vd2+0hDChhAWIiVKQknHeb8S/8G8Bju9E5GWKNmRVMlNryyEIeC6GWjLggq2TDWpUk6tcp9U+jsKDNfKPCEgQkSRQmc+nyrjxPR/WDQxAwaBzQVdb2ZQLFmLqinndlJUHDghwKQuzasSqmaJFSEEi6adgDh2N57ar4SENvm2SCxvTp5v6fVT2r4Q5voUojc5e9hlt3ni5KCWiSWMhYzqk2MmK/5O/LjSEkrE26Nzq1LXQCk1QT/9wcpUw6Kpn8MxTbVRIn4l41K21DzfU+hc0LbLw6IERzQxtei+0ArTG+i+M7nRdhIE57YdUPDdyfRvdp5nI4BkMswYC2xlYqqRmh++24Kd7U7bXMgE0/9gS1M/oRwjI+LisKVfUqtWrYLneejs7ER9fT2GDx8OAJBSDuAbtnq42TkelrJGAbOdo2dMb0jGr2yfLTFbj+wmcCh2rffhdgidiJusXI6e1UDpmd1HHWB2KCya+glCiLh+mm1BCAGlFI488kg8//zzaG9vNzXTOjo64HneDu4tw5YEpmdw0Pe2QIntO181TqxbHVOp1ED94Tp44ed6P0KVps8CQKFQwDPPPIO2tjYIIWBZFlzXxcMPP2yWYXY8QnM4Q79mG2Ul7co6wfRv6LwmYypTs3iZfg9bmvoRjuPAcRwopfCnP/0Jvu9DSgmlFHw/rqt02mmnQSmFKIxM8dkdRaV7cHPBmeR2VEoZy1nf0t0MqfJsmBQ9mlXFDA624PpJEXXzHTNQUCJOtMkMTHg06EdoraG1RhRF+NznPocoilBXV2fEFImS119/vVftRmH8MCfhBQD5fL7L5ZWqqPmkNYrFIpRSZr3KZYDYdRiF5RxGyWWSn2uly3+X9rnv4rO6SW4JoJxbnHKvyM0MhDXo7fLMzkGPrEq9vH4SJTfKrhuZ+H+5VaaSro5l+ZhuD3TFLFxmcMNP935EGMZZZdesWYPVq1dDCIGOjg7Mnz8fSikjLD7/+c/DsnuWB0YpBVUqA+C6LrTWCIIAmUwGQLW1iKxAWut4XaUghIDneZBSwrIsI8KSgkdrjYaGBoRRiCAIUtYk3/eRy+cghIDv+7Bsy7Tfp2wmY3Pt26H0Wa+FEN9a/ZvKRKc1skH36PpB7e9YWG9TNLav0NGCXXCDBb5z+xFRFFtjbrrpJiilTMD3f/7nf+LAAw80sU1PPfWUES7d4fs+Nm3aBMeJK3BrraEiBcdxEIYh8vk8CoUCgiBIWYGAOKZKCGEEVBRGUErBdV0z7V5XBEGSIHNd18wCVCreXmNj406VW4VhthU8uG4/treFiM4tiSglOKZxoMExTf0Isv7ceOONsUUnioVRXbYO11xzDQ4//HBj7bn+u9fjiiuu6LY913XhOA42btyIuro6RFEE13Hxr3/9Cz/96U9RLBYxY8YMHHrooSaVgWVb6OjogJQSYRjGMVaRwpq1a3D//fdjzZo1UEph7733xty5c2ElUjyGYYi6ujosX74cd955J6IowsaNG/GhD30IxxxzDCbtOQmu68bWJmnt8JisrYMdLgwzGNGczHJAw6Kpn7F06VK4roswDKGUwpVXXgkhBQ79+KHIZDIoFosAgGuuuQZf/epXIYQwlqRaNDc3IwgCFAoFrFixAk8++STOO+88KKVg2zaCIAAAnH322bjjjjswdOhQtLe3QymFO+64AyeddBKam5sBwLjbyB13zjnnYL/99sPSpUtNH0aPHo3W1tayK86KXXFXXnklZsyYgScefwKWtKqSRPYrttGMK2Z7Uq5kvy0RXJRsK0j/qOrqMEolSzV0+i4Q35RM6bMWmf5Cf/4pP+jQWuOLX/wifN838T5f/epXAcQWoGOOOQZaa3ieh2KxiD//+c+QQiIKo5qB3VEYYdy4cQiCAI7j4KKLLsL8+fPNtgDAsixYloVjjj4GKlLYb7/9EEURHMfBvHnz0NzcDMdx4HmeiXFyHMfER7366qs44ogj0N7ejoaGBrS2tiIM47gmmvnnOA7y+TyeffZZeBkPlm1to9lzDMMwWw7nX2P4/Pcj2tvb8eKLLxo33cSJE9Hc3GwExk033QTLsoy16bLLLoOQAtKSNUWIZccuPiklhBBYvHgxgPLU/yAIjBvw5H87GZZtYe3atSaOSQiBhoYGKKVQLBZx8kkn4/vf/z6iKILv+2hsbAQAPP/882hqaoLv+yY+6stf/jIuuugi2LaNYrEIKaWxaj355JM9isliGIZhmO0Ji6Z+xL333gvLshAEAbLZLK6//noTPJ3P5zFq1CgAseixLAuvvPIK2traUCgUamYJLxaL8DwPQRAYV1mxWMShhx6KNWvWoFAo4Cc/+QlOPfVUYznyPM8EcGezWXR0dOCyyy6D7/tY+OuFOP/88xGGIWbPno329nYEQWBm40VRhLPOOgtaa9x444248cYb4fs+vvCFL0BrjUwmYwRVT2f/9S1sbGc2A6WgqHz9f/bePMyys673/bzDWmvvXVMP6e6QECAMyUVURhEiCg6RSeIACB4ZDCrKcDnkHo9ihBAQAY/c+1wGuXKOTB4FAgZzDA4JeJQhCCGCzIYxZCBzd9WuPazpfd/7xxpq167qruqku7qq8/vk2U9X9l7TXmvt9/2u3wjI/bONEBe5cJwQ0bSDePGLX4xzDuccWZZx3nnntQImSRKSJOFNb3pTm0WX5zlvfvOb6Xa7a7bVCCCl1KrlH/3oR/Oxj32M/fv3E8cx559/Ppdccsma8gEhBPr9Po997GN51ateBVTlCHq9Ht57Lr300nZfjXXp6U9/Ou95z3uAKnOvqVz+tre9jW63S57n7XaPebkBOPyEtyr9+zA1eGQQFjZVM+hwdZw8vvnt+M3VHQsBwsR/wiaZDG6S0g7CMUbuqG3MZKr/t7/9bZxzbV2kX/qlX1qzfJ7nnH/++VhryfOcJEm4+OKLcaVrXV9HIooiLr/88rYe1EbEccwll1xCHMXrBps/4AEPQClFHMdkWcZb3vIWlFJkWYa1lk6ng/dVa5gHPehBm9rnCUEEk7AhMpQKwj0B+aVvY6IoakXThRdeSK/Xa99//etfv2b5OI5ZWFjgIQ95CLDStuRz13wOazdOlCyKgr179gIwGo02XD7LMs4444zDutK63S4hBPI8RynFqaee2rZ+0Vq3f3c6HQn8FgRBELY9MlNtYxpREULgsssuYzweY0yVWXbGGWesWb6xTD3/+c9v1wM477zz8G5ja8mjHvUo8iInjuM22PxInHnmmQBt4Pl6NGLojDPOaN1vjRhsLFBw5LYtgiAIgrAdkDpN25jG5fX+97+/jTlq3FndbrctZAms61JrLDyLi4scPHSQ+fn5NiC8sUI1MU1aa/r9fvt54947EtZaXFmVH2gy7SZp3IlaaxYWFtrtNTFRWmussW1NKEEQhLvO4YpeNXGLkpEr3H3E0rSNaawwb3jDG9a1xDQZac65VkRNvpqMN6iKXTaZcq5066b0j0YjtK7qOm3G0jQajTDWtJXBp+n1em0tpuFwuOqzyT5zjatOEARBELYzIpq2MZ1OhxtuuIGvf/3rq8RQ46IbjUZYa7HWVgKmLkTZvBprknOOt7/97SwvL6OVxgeP825V013nHLOzs2RZhrGGfr+/5ngaq1TzamovxXHc9qKbfEVRdERLWNMypSmhIAiCsHnWyXIVhOOMiKZtxmRKP8A73vEOrLWtwHnNa17TNtMNITAej9u/l5aWVr2mrTdXXnklSiustcRxvGbfo9GodbU1QdxHYnL59SxTRVG0/fHWs0S50rX978TSJOxsZNIWhHsCIpq2CZNCaZI3vvGNZFnWipwLL7wQWIkXapis1dS83vzmNwOVYLHW8oIXvAA4fOB2Y51qBNpG9WSmBd40jdtustr3JEorXFlZvCSmSdj+HL4Gk3A8ONL5lnMunBhENG0zJoXIJz/5ybbNifeec845h+Fw2Fbj3ogXvvCF9Ho9siwjz3P6/T433nhjaxVqiloaY7DWti60OI7boG3n3GFFUeMmNHr9kgONBcl7v65lS2uNNhrvqjYszfduBJsgbDuUP/xLEISTHhFN25hXv/rVbcq+956LLrqI2dnZTdc0CiFw9tlnA7Q1ni6++OJVFbcnY5qaCuFNtW6lVdXw9zDCqc3A06sz8ZpXmqZ0Oh2iKGqrf0+S5zllWWKsYWZmZnXMlpFbUxCEIyFWJ2HrkZlpm9EIEYCrrrpqlag599xzGY1GbdmBjfDe82d/9mfEccxoNEIpxXvf+9420266LUqaprjSYbRpLUONcAo+4J1vBdRm2pxMBnqvZ2mK4xhjTNvwd/p4BEEQBGE7IaJpmzAplsqy5B3veMeq6tlPfepTgSqjLviwrgiZptvt8uhHP7p1wTVC5AMf+MAaMeO9Z9euXfjg2zIAzXFpo6v4I+9at521FqWqmKSmTMG06Glip5pSB+uhdSXImp51IYR22WnxJGJKEIQV1uv9JwjHF7nbthEhhDZ4+oILLsCYyuJjreVP/uRP2uUad9hGuNKR5zmveMUr2m1573ne857XlgRYXFwkiiKiKKLf7xNFUVvHaVLITfaQa0SQ95XAyvN8XXeatbZtLryeS7GpGWWsYTgctse0GUEoCIIgCFuNiKZtRFmWaKVZXFykLMu2cKVSirMedNZRb89Yg9GGF73oRVhr25pJjejp9/vs27evLRtw3/vetxUx64mgoiiYm5trXXOnnXYaeZ63JRGmOeuss1oBtHfv3jWfW2sx1lAUBWeffXZluXKOAwcObKrBsCAIgiBsJZLnvU1oerEBzM/NMxqNqlR8Y1Fa3aVsMu89Pnj27dtHf6lPURYkSdK2MAkh8PF/+ThQxy7VWXpAW3pg8viMMXzqU59qLVBNYctmX9N88IMfpCiKVY2Hp2k+/+AHP9jWchqPxyRJsqm4KUEQBEHYKkQ0bRMmXWHGGgxTafx3wSbY9JRrt2nNqn0ppdr32t1MuNGm3XPTTLrRDpfR1wih9daf/Hyy+GVTTmGzWYKCIJyMbPT7l4cqYeuRWUkQBEEQBGETiGgSBEEQBEHYBCKaBEEQBEEQNoHENAnCMaNppzHRVkMFQFXvyTOKIBxDpn9PUsNNOP7IKC4Ixx0JWBWmmRTV0g5EEHYKYmkSBEHYEjygpLnvMWP6PG6u6K8g3B1ENAmCIGyWIMZ5QbgnI6JJEARhUxxJMIn16Ngj51TYfshjkyAIwt3mKIfS1kUnsUyCsJMQS5MgCMJWoQ4nkkQ4HT2T50ye/4WtQe40QRAEQRCETSCWJkEQhG2AnnqGDYTVpYckOWyKqfPVnJ+ABOwLxw25swThOCLl9oSjQ4bku8P2+b1JrNrJiliaBOE4MFmuUG+joVzYPoT238B2mu53OkpBCNvlfG6tcJr83kqJafJ4II81wkmIRwfQ7fihOda3ugp1Meea1UN0tT951txeNPOJwhNCgaIEwCuOgTtn4ysdVL0vwCuPBwIejZeB+Bjhm2tc/z5N8JSuvFvbVMGjwspjkFceP3EtwaOYzIZcobmuIchIcLIgliZhSymKghAC1to1T0J358koUImkbJwSdzWJiSi9x2hTTUu+rsaMO+ptu3rb1ZrNAGrqHTtcveWyzOnNzBCbhFCoeohdkVPTT7/yJLi1hABRbHEWVEjpJj0GuQMMNo5wRV5lt00bKdZ7b5qNqnwHTdAGFwIOh9IBBzgCFt8WCw8oDrez7WM92So2+n0cviK4BiLviZWiLEu8LdFK4SbOrdrgdLYPXZPlIRR4pVdEtvboWhB57EpcFRoVHJ04QQOhBOINvs7dYL17Q8ab44OIJmHLGI/HdDqd9sd7rCcBo+BeBw6wmHvS5UVUdx4cKCw6BLRRmLvqBlHTQ/j006tibnaW0fIhivGIuU5HrEzbDA8MxkMyU014eV4Qxz08lix3aAV60uJ0NNanTSwbRzF5tkyZ50SzcS2adG0Ck7vlWBAm+mJ7V2C0xlrDOCuJkhi1wZijpz7WNIJ55fp4NEFVO1GBFdGkYNKi3el0GC7egUIEy8mEiCZhy2gEUwiBNE3pdDrHbNs6gAswHh2i9AkzHYhnIhaXR3gFs3MLjMbju7X9I76nPKPFg5hQsnvGELKl2hal8ZTYxtAlnBAClcydXdhHZGcoMDitUUoT0HjlUEoflXRZ7544PJ48TZnvdOh0OqTpQTzgsJSAQdXBOEezTWE9tILgA8lMj9FwiEtioihBBYU+StEEq3+2oRbWvhbJGlDt39X7oXb3ejRoKIBgKtv08XbDSkzT8UdEk7Cl5HmOUoput4v3/tj9sFVtAi8yOrHltuu/yZ3LXybuzBIUpGmKje+6fXyjwRSqQSrR4NMhquxj6mWObnIVjhdKwWg0IjOK/SqgI8MoSwFNN45xRbFq+WN53RSentWEdERIU7od206gTll08BNWkAlzibBJqvPViF4FhCLHKEhiw3I2Jo7jOuh+fdZz1+ngV7vnggZVtvurpFFldQ7NcYTqeufpiD1zPQrAB388vXPCFiKiSdhSoigCVp6I0jSl2+2S5znWVrdjI6SORlApwGqwqqC/eCs6mmGh20OxjPKeXlTiw/AuibTmWNugTr96dG3M8tprtFMoNya2kFD9wKyy1YjcBDyo1dsVtgClcBkol9GNZ1HFGK0Skrqmj85y6ui3dpVj6TDTgC49+WiZPd2Yri5XRHeoXD7KOVQbc+fqw67dQEoRlFgPVmPWvKM1FCXEVpMXKQuJIS2G7O52ycvRqpgmM/3YM/2/oXpvMqXDKzDYNghc4zGUKKUoMeTOEyddfJ6jKCmKDIBSBQKB4/WTb8aSZmxSWqGUwnuPc64dd4W7j4gm4YSglGotTsAawXTUBDAa3vLm1+OAWEPGSt5cG9O58WYO+55aZ5npidUAIYfYVINulSFVxayoqUFeJsCtQwFzHSAdMjO7wC3f/jqj0hInM0CVQBBFurU2hE1cGn8Ul08HCIVjNonJ+ndQ+D4x1QCs6ng5pVXr6ll17BP3SQhB7pt18EDuHKXTeK/QviBRluuv/RKl6ZB7hdMT19UHQghrHoAamsVWLE0rv3SnbJvvqPGYUKJUoFSKooQknsEVOfMRFIMBAFZvvWjx3hN8aMdW4dggZ1M44WRZhjUWY9c+OR4N3TosJK1jNyOqG9ywYmHXh09OAtafLKfz7Sazh5uJM9TbNUAZwAYwvrZO6TruQea6E4YBOsBpuyJuufV6THeOfb29jMZ3ADCfJJRl3loT15tL767DrHDQwxNbj0GT1Mdlob439BF3ouQGWpfJBxelFLGFbgRpf4moG5hLDHccWiSJI7wPaF2dR82RLdo6AMqj/YqLzgNeWcLKnVKJJh1wXlF4ReI1zhXoMmNPt0e6nHLKXIJdm01yzGiTayZ8jEqp9n5ypbvb46tQobxfGR7kCUY4nqyXAquUYnZ2lrIsyfN81bJH674ySQ/nPJQekgR8ASagvEe5AoLGKFVFZR6BaQuCn7InrX9ctU1LKyhLUApd/56ap9XmqbYVWuKe2zoU1bVREagYVAeUBR1XItqXVCnlG4yBd/WSKV3dl85VZkifQRigKFFBV5ao4NYNrGluE8mv2wgFWDAWgkHP7MK7ppzDOr/5EDZ5PScsTW2GnF79mQ6V0nYK4jnIHYQCygGYFFx6XOfX9cYSrTXOOcbjcWvR30rW+75KKZxzO1priGgSTihKKYwxhBDw3hPHcSuepv8uy8MVqdOVyEKjjcGXRT35eZSmEizlyv42bzPYXMHCarvVd6gG6CqNXKFWhae6KZuV/N62lkCoJ0+98m/jNnH5Omusc5/cZdHEiiBzRbUh7SY0km8nPtWUAGoKNTarbcZneI+iOlGhDdRuHlyi6nx7KmGkTH1SdSVaGzZ8aGmEkmLVWKDN6s9ri9SqY/ChGgO0JzSCnGOY+DJFs13vPcYYnHMYYyjL8oS5dE9W0STuOeGEMf10FEXRqvcmRVIxldk0taV6vQC+SuRu/WVTHSqq5Y6+wOURdl2hmn36ejAOrFSFkmKF24ZQVUdSdQZUk/nk/HqC/FhksE1MrLqdyduP1o2hm1hl1ftyv0zRBKA158UBAaWq3331EBNqi3YldPyqytyBw1/jieWmxKpy5dpiplOXph2Pgl61reN1DSe3G0LAGHHFHS9ENAknjOmnjaIoSJIEpRQzMzMMBoNNFsJsanK7ieWabJJjftjrsvr4qgHTH0txJhxTmkltpb3FkVIAGu7KzRTW/XMztLYL0UqHYb3r4Vd+9I2hKFBX8ddT60w9UR1226vHqYDa9MASwtaNAb1ej9FoRK/XYzgcAivB4EortJYyFscCEU3CtiCEwOzsLN/5znfYs3sPhxYPYa0lrmsr5Xl+xKentiyAtpRFFZhZ/b8G5avYBmjf39xBbTTIrHzeFO30DrTR7UC1gl8j/HayiXonMummaNy0pna1rNufbPr6b9QqBVg7kU+6dVS9r6JyS09d/9Y915ZFZeJYxT03zdo2J/X79YkLQbXXvLnezTgAVQubzVRyV3q1e24zv9smJlPrpoXT5te9q2RZxumnn85wOGz3DZV1LToB2XsnKyKahBNKIzZCCAyHQ+I4JsszOp1OGxw+2Xplo+14X9YhBxMWqlCZ59cKpg0mwQ2Dgtd+Xu27iqVavfr6/n1h61jvfDvvDvvZ2qDsqdiWdXeyxqm2sq96XV23cTl8Nlwt8KVExRFpz8Ya8bliPaw+CoSgAdfGiwFVMdGNGtDV26l2cxR14yYs5Ft13aIoWmVNavatlZZSFccQEU3CtqFxzTnnyPOc2dlZiqKg3+9vsuXK9ISmV/877eLbsGjT0Zqzp/Y/PUiJpWCHM319N7I8rfP55D215v4Im7RmCauYOKder66mfjjDsm9LjxzN+d7+cUKttVKtWNmMNRRFIQUujxEimoRtQ57nDAYDTjvtNJaXl1lcXGR+fp5erwccIa6pmWiaLJZVYmeiI/m0StroIXPTE9hk5szk/ws7kw2u55r74nDXe0p0h6nA4zUieioFXjT2EfFq7UPNpmzJ09fvcL/zjdyzR/1QtbVEUURRFHjvSZLkRB/OSYOIJmFbbyYllQAAIABJREFUsWvXLhYXFzHGMD8/X/WMs3bz5uUwZV26OxxpUBSLgNCy2Xttern1RNl0sLKwEau15+T5q5vnbnQ+t7n4uauUZUkURVUwuLjnjhkimoRtQ1OrqQnc3HTPpND051r3w4m4hWOZhrR2IF4ZlMy6u5Mxa7txF9xrcJcn2bXOndXbn75/RDptRB37ddif9QYWwKP9PR7l8LHVIqWJDV0v4URE07FDRJOwLVkv6+Su1ziR6UcQhHsWkyJJBNOx4+S0Swo7kskgRkEQBEHYbohoErYVUvVYEARB2K6IaBK2DZO+90nXnCAIgiBsB0Q0CdsKsTQJgiAI2xURTcK2Q2KaBEEQhO2IiCZBEARBEIRNIKJJEARBEARhE4hoEgRBEARB2AQimgRBEARBEDaBiCZBEARBEIRNIG1UBEE4qdATVSt8nYgZ1JF6lAmCIGwOsTQJgnDSokUoCYJwDBHRJAjCjiCo6oXyoDwaPyGK9MRrCuWRps2bQE2eo6lzqeT8CQKIaBIEYQcQjljvdHoYk2HtLqM8q8+fnEtBmERimoQTypHapkhLFQEgKN3aifQRLEYBXcctTSwzYSEJ9d8qiBDYkOYcNecvTAspv/rz9dYVhJMQubsFQdhx6CCB3ceUo3a/ydQh3DMRS5MgCNscX9k2FHAYoVS57xqryOQHekIQyES/LusJpnVFlJw/QZBfgSAIO4Im6Ft7DUET6uErrHHBTU344TAB4kLFpDstTLjeYOJvOX+CAGJpEgRhm6MmJ/F2gq/+9crXtZiqZRphpeplmwByFfxEMPnhBMD2zhBrvps/YlD85pdbxZo4pA1ilSZjnSSzTrgHIaJJEIQdQxXLVIkhr1bccl4xVX5gzZr1vzLBr2XyfPm1IijYtaIq6FqZyvkU7lmIaBIEYUegQz1Pr4tvP/S6duEpAA1hMuZp0vp0fI/3eLAiFNcef1v1vBE9zcmaEjxNBqKvxVJrmaI6Z6EWTtX215YfaLMQ7/7XEYQdhziqBUHY9qxky622hHg16YY6QnFGWDcV3mhz2H0qpVBqfWkQQmhfzbLHm8n9Bb362EII+BAIyuOVJwSH8R7jqyKgQYFTui7fUJ0HEzwmVDFgnuqzgKUSmiuCSodmjZXzq41BKUUIAaNlGhHuOYilSRCEbU0lmKoJ+7bbbuPGG24h6XbIAwRdiQTwGBUwGKyK0ESMRym7du1l34H9xN0OhSuIIotBUTqHUgqtDaPRkLm5OcqyqPfYxOusmHJCCFsijA5HCAGtFAYoVGXlCSFglCL4gAO0Cmij0QGCL+jFXf71k5/GxxGFjZjZtZ/73Oc+2HJERwciBV/5yldwOgGT4KMup93rNGa6CUmsUWWJKzOUCnS6hqyEcZ4RR1F1UFrjfCBSEYRy5fwc5jRJ3TXhZEBEkyAI25ZJl5ym5Mp//Hte/ju/xzgroHYnoWvXnK6W97X2iU23ar2iFU94whP4tV9/AU9+0pOI44QsyzDW4p1jfn6e0WhEFK0Mhz4EcB6lFFEUoZTCOddO/FprtNZ479vXkSxTdxerNVYZHIEQSlzpsCi00iit0ChMbFhaOsSu+VkoFTd+69v85vnn87WbbiIoy2//7u/zyj94JQvzs5TLi4xHY17/uj/ib/7hSlQ0y5lnP4R/+t//G6806Tgn1tV3mpnt8f2bbuYvL7mEn/zpc7n/Ax+A8orYGozWJ1xQCsJWIqJJEIRtTpUGH3D0ZmKKolZFdsIt5D2UlavOWAVBU4YCowxlnvOxj13Bx678R37ghx/KFVd8jG6ng9GGEDzD4YBeb2bC0gRGa6yNCCFQliXee7TWq8SBCqtqYx9XvPNkriRohUkiTKTQhQMf8M4TtFrpzVetwd5T9pBlY2Kt8EmHU045BaUVi4uLzBrozvbYvXcPs71Z+mnJgQMH6M706GjwoSAdDul1Yq6++rP81otewvdu+j5nnHl/7nvm/YjjGO8dxlhcWYpoEu4xiDNaEIRtjwas9uTFiABEnQSlI9ARShtUZNARaA3eB5xzeF+iDUSdGBsZoiTh2muv5bde+ELyPKcsHUXhmZ/bRZqmq/YXQqAoCsqyRGuNtRY9EbvjvacoCryrSx1MCarDcbRWmSaOSSmFsQZrDd47iqKo3q9jm0IIZFnGzOwM3jsAoigiimOcDxRFjrYWjKbb7ZIXOcZYBuMRy6MBgcA4z1hcXCTLxmhK9u6Z49vfuZYnPeln+cpXvky/P2Bu1wLd2RlMHOHq/TeCUhDuCYilSRCEHUAVtxRFBmPAOUAb3vqWN/OTT3gc3pcYVVlerLLkueOGm27kpptu4LLLLuXv/+FKQgBtOnz0yiv5yN/+Hc/65V+mKHMGwyGRjakigyqUUiitWktT43rz3lfxRVoTWUPwAQg4AmYimGdSGJWhWicbjel2uwAYYyjLEoA4jkmShKIoyLKMEALdbndCyHkCYJRdZdVyzuEDlN5RBo+ONDaKycdjetowHo3qWCjAe2678yBRbHBpwMYxg9GQH/nRH+U7N96K6c7zyMc+jv37dzE6eAcLCz18mVFmKeloVB1zZImjDqPhGKUgMgpXVlau0rs12XxifRJORkQ0CYKwIxiO+2T5EO9BmSqI6V6nn8Ep+w6wZ36WMk9xvmA8SJmbm+O+978PUWT4xac/lf/2x2/iTf/3WwHQGP78z/+cZz7zmQB0u11CCOR5JWKMUa0AUEoRxzFlWVIUBcYYkiTBe09ZViJLGY3R1TptdlsImDrDzJgIrRTduBJGzjmcWxFoaZqyvLzMrl27iOog66IoWtHhfcAHcHjQCmWrgHCtNVZrEtshaMXysF8Fi8cxZZajauuXUgqU4tQDB1haGjGjSiKrUVhe8pKX8Bsvfhk+6lEqzSgr2bd/LyHrE3zBYNgnihTjNMBowHCcYW2EtRZXZJTeY0QcCfcgxKYqCMIOwLOwMEdvpoO2tfWmLNi9+xSiOGYwHOBqt9TevXsYj0eE4MiLEaiSCy54KQcOnIYvIfeOa7/1TW688UZmZ2cYjUaMhkOsrZ8hfcAojdUKlCctcsrgieMO1sYQNNbERFGEtQalDCslDlaG1MZyNBoNWB4sMRwOK1eWmShnEDTGGLrdLuPxmDRNGWUpo3SMcw5jDNrU9ZEaV50Pdeafpiwdg8GApaWlylpVFihj0Na06zTcfvAgyhrm5uZQVmMiyzjPcN6TpimDUcHsjKU/WKLfXySKLHt372KUBZQG3e2htSZJEoDWLeglK05Yh+YeP54JEicCsTQJgrBtaSp9ewWj0ZAsy3AelDLoTo/+YJnCOWa6HShz8LC8PCBJIhyOLM+ZX5ijTBw/+ROP5/2XfJhQ5IyGY2ZmugxHA0IomZufoyhKNKB8wAdHUebcdPMtXPvtb/H979/CwTvuYLQ8ptPpcODUfTzmkY9k7/597Nt/GqkrCFrRdMQzwZOnQ/I8Z5CNGWcF+/fup9fpkhUpt99+Ox//l6u48/bbKYqMubk5HvbIR3Cf+92P00+/N2UZSNMRqvRVQLopULUrzhPQQTFOU2647ka+8rWvc93130NHlpmZWR77qEfyA2c9EGVigrFoYwBDHEfMzyWkwwEdFehGmptvuJ5xacl1h2ThVIzVzGlN7kquv+67fPe67+JCVX0h5DkHD97JTd+/iUMHD3Gfe59GkkSEqhzmKvekcOKREg/HBxFNgiBsa7wCg8aYmFjHhAKCcbhiVAmV2FLgUaWjG1nKMCKECGs048JhQsQ487iiIHhPZ24Ps7OzdGd6KBXodRJckVOkBbG1ZGnGv3/x87zi9y7ki1/7Crn3UJZAJT60sXiXMd9NyPOCV73u9Zz/Wy8iV1XhzX29BJMOmVUFz3vhc/m7f/k0w9Tz+tf9Ib9w3nn89ktfwic+8SlAoQh00AQ8KYA2vOWt/53nPvf5BGJQCq0DzjV1mAqUCnzpS//OK195EVdf/XlGgxKlY5Jej3ScooPnIWc/mP/2J39MiiYPDhPHWGspCogB7RzF6BBvvOgVvPeDV5LrhPv88GP51Cf+GR0bPvShD/GKC36fsauC64M2eB3zguf/WnUanOdlL/8/eeWFv8/87CzLg+VanO3MSusnA71ej6Io0FoTx3EbE6eUwpUOpbdW1E5blyYLwu5ky5O45wRB2BFYpcnTjCRR4AroJXUhgsAoTbHWYI1h1569OO8Zj8fs23eA2249yG233sGH/vpSQJGOxpz5oLOIE0sSgQoFuDEzHQ2h4J3/4x2c95Tz+MK/f5E8z+ssPQsmAgLe5YCrsswM/OFrX8eLX/RSnNbsXpiv3HdaERvPTBKhVeXeuuiiV/PwR/4IV336KnSkiE1MjEWjUFSB1eB52UtezFve9naipIOyMXlZ7ctTkKUDPn3Vx3ncOU/i4x+/mtGgEnPBB9LBqCpB4OGr136dn/v5X+D6m75P8AqXFQQfCC6Ar1x8Jni0L6pJwCvuc58zcQG8C3VMFnTjKsbLewd5jokjSFNQsHvXbmztPmzLQAgnjFEdsA9VnJwxBlfH3ZWuXOMuO96vkxWxNAmCsCMoy5KZmRnGWYAoBufpxFXhyb1zuxn3D2G8Z+n225mfn8c5xfLyMouLi7zoJf8ZbzugElCG5zz/ecQ2woQxyqX44IgSw99/5HJe+9qLcR7iqINRmvm9p/Cyl/9nznrg/RksLfLpT3+a9/3V/2Q8HtJxHmU1l334w/zmBf8XD3/ED6H6fWZJmVGeODaULqC0oXSasigrU4yCZ//Ks3jYD/4Q//aZz3DFFf/AcjECD53ZGf7ojW/giT/3NM56wP2ItKE306VID3Hwjlt42tOeBRriRJOlik68i9/5r/+Vhz7sLL765S/xute+ljiKGWUpvaRH4QI+KDR1YDrVSxtLZCMiDZmJ6Pf7lIUnC46zznowT3nak/AucOnlVxAlPUqvcUXJr/7Gb3Do4EGe+MQnYqOI7113Hafe616UIpxOKEmSkCRJHetWJTVc82/X0Ov1yPOcOI639HhOVuEkokkQhB1BpA15mtGJIC1KMPDe976Hb3zjqyzM9FBFSqd2EWVZxmA45JrPfZb3ve8SXLDgE1Svw3nPfCZPfcrTAE9wJco7jA4cuvNW3vXu/w5AHjy+SHn7297J05/9yygNRTYkspZnPOMZXPSq3+dVv/dfuPSvP4xzBQT4u498hLPOegC7I0PHxLhRH60NrgRvDGiLsl2e/oyn8PY3v5mZeBaXFfzmr72AG274Luc942l876abSYd9bG8vH/5fH+H3fveluAKKdAQu50/e9Me4Ejo9RVFYHnPOj/EX734/p+7bz2h8B+f+1I/zm+c/h8edcw4335wyzkbM9vZQZDnOlXXWX6gy8WpXiQ9VHNdgqU8UazSWcx73Yzz+nB/lP679Dy69/AqKNIWgueLjn+RRj3oEcRzTXzqEVorTTz+9zSQUThxKKbIsA6oaXc45zjnnnLa8xVa5xab3cbKJJxFNgiDsCIyy+MKjfJ25lWZ86C8/wGUfvpRi8SBaK7SvKhkFqspOmqrDio0sOYZnP+vZXPT6P6LbTYCUPM/pJRobWfo33cBH//FTFIAi4uee8vM8+1f/E/PzEWnqKIyjE8UUZUFsNb/zOxdwySV/DcaBMhSFY2GhR3FomcyNiXEESnwAVARRl599ylP4/97xp6gioyhKukmCjeDMM8/ksg9fyg8+6hy6MzOMR2O+/PVvsjyCrs+YjSzf+OZ3+av3/i1oyArNfc58AO+/5FL2LeymE4Gxc5TlMjMdy79f/RnOeezjuO7GWxmNliHqoYJGrdO0uKHX66EVxDZGuQznU4qiJASI4i5FVmUDeu8Zjcf0ul2cr2LFfN0bTzhxNCUxtNZtyYoQAtbaLQ0Kn25iPb3v4MOODgzawYcuCMI9BR0gH6cszM6h/EQv3dJR9IegDEYptAKt2lZ0bTFIq0Erz/v/6n/yja9fi7VgTERvbpbBKGV5aZkQFP/pV3+BH3nkI3CUPOtXng14lvoDvEvReNJsRBQZ5uZm2LdvL2eeeTp5nqIjyzXXXMOhQ1UBy26vgzEKazXWgNYWkh4vefl/AR3Tm52jE1X1lNIiJ44j9u9Z4IH33ks2HkIcc/PtdxIMdGfmAPjql7/G3KytmvTmnote9VrmZhcIDoaDAh88kY2Z63XodSx/+tb/B3wl3Iytzo1SoPXamBOvQEeWPK/qVRljMaZuXxNo60rVFaIAyPOCsijQ2hDZ6KSzKOx0mir1jWtOrs+xQSxNgiDsCOLZWQ4eOojVYL0h2G7lGqvSu4DVMTWdxDLOSlCQZikeAy7w808+l4suvoiX/tbz0CEl6sww20mIooR3vud95BlkThP1EpwrKdMRKFBKMz87y2g8oiwzlvt9sixDm8qypZQhjmN05CjyHO0cZenxJXgcC6fu44ce/sMMx8u4UcGuuDdxtJ59+/bykAf/H3znxqtAeYbjjDxUT+zewb9d80WKQlN6mNtzCk94/E8RRZpsOGSm2yF1GoXGU4m1H3jwgzj9wAI3HxqS64A2YEw1mRqqc6a1Rpmq115ZFCQziq7uUmYjerHF1vWevAtgDDqyGGPRAaIkIriSsszbVipaqZX+d+2/tXR1MmlvJc45Op0OWZZVCQ0imo4JIpoEQdgR+DRldma2tTIprfibv/lbHvqIh9KLDdZn4B2gCT4wGPZZWlriW9/6Bi9/2cu47bZDlAzxWclrL7qQM+93L8572pOxsWaUpiRRl3x5jE3mcFoxWFpGm8Cdd9zCoTtu59Y7DvHVr3yVb3/nm/zlu9+DVWAUuBLQDqUUaZozcmMU0NUWpVaM+T/8sEdQlHDK/By2zEhHGd2kCs7NswGWMXt2zxJFlgzqprgwylIi57nhplvJUoe1szz8oY9mZnYWpWFubobBUh8iS6kgql1w+w7s5afP/XHe9VcfISuWKcuSsvTo0lHiiFyJcyWuBKer7KrREGI1ZjauC1f62r2Ig6Dq5sWOEDx5nqMDlYWvrn4utYG2F00Wnfdb0Vb6noGIJkEQtgfqCAN78G0q89gDCsqiwCuYn5/H4piJOiwdOgjA7j276XRjTjvtNB784LN5yhN/mhf92nO59H/9E0MyQuH43Vf/IT/ztF8ksYrMFURUlpJ+f8A/f+LjvPtd7+LKK68gmLo1igIfSpSvClg6DypSQADvyPOCTtKt+rJpjfJFXS0coOTg0kF0BONxTs8EdGzIgsMETxQFdFESGSiKEkKOL+s6OwYK7/js1Z/H+Ygy11g7g7UB50aMSk2n16M/HrIwPwvDAMoRyhHWVq5M2+lW9coD6IkOdn4iQqNys1FZkrSpAoerRD8CAWxUxchEEeNxTmSaa6bQqMrcFnRtafIbX1PhmKK1XtU8WSnFwx/+cIqiaFsBbSXTlq3G2mWsOcwaOwMRTYIgbHu8AmUNaZrSsTAsA1iD1tVLKVgaLDI/Pw9oBsvLdHsd8jwHPN3Y8sY3vJqP//M/USxDHne4484lPv/la3n4D5zJnm6HqAzceP11nPvEJ3PzrbeR5iNAEbxGR4Y8GwNVPaXEGIq8xBcBrS1eWZSqjkMToVSM1rbqBVfPHZXoa/7VeFzVTDdUzYhRxSpBg/IYVYs1NPPz89x820EC8M1rv0GZ53TmuiilGY/H7Nq7wGDxEDNo8sKhjWd5sIwxkKdpVacpBELwqLr9SQiBWhJSBkfpoAwObx0+uInPIUoSQggUeU4v6VDmo/r7VPXAQ5icJDUgVqetJMuyqiTHuL5Po4irrrpqVdubE01zbK50O1Y8iWgSBGHH4GsR0RAm/j+yUV1kUWPrxreT7D91P+c8/sf44OVXQbCE1DEejpmfTXCjJQ4uLvGrv/IsbrjhOlI8SdSjrAVNnuc85znP44EPvD+PfPhDOevMMzllboGHPeJR3Li4CErVbitwwVOqgHXgHLgA1On+zgPO141HJkPVJ77j1P831ipX5FTfKnDvex0gSRLSNEU5g00iBsMhRZkTdXvYpIvPhyhtUcZAqNqpaFNZlDQaTSU4KxNULT7r+KZqGVMJP8ApTVHkhBAYpym6k9STcKiyoVSAiTYqnirovPoCHn2ErD3h2NDr9RgMBrVbt7pnjTGtpWmrXaeTIs17j3OubXa9UwUTiGgSBGGH4L2n2+kwLkAbg/MO5wLOOzQOvK+b2yqK0pGHUBf082TFAIqS7996C1pBmRegApHR5NkQ0gF/fclf8eUvfgEwRFFCFhz/71vezLnn/jSn7j8AzqN0wKiAJaByx/z8PGppCWVVKxIaN6I2GqN1ZWmqM5m0Wvl8o0lspRGuRgf40R95JLfefCuJjUCVDIcjZhdmsbqyrGmj2LN7gXy5j3cpyig6vXnS3KGS7iqxuR4hrMi14AE1JXScZ3Zuri6gqDBBUzrXuoRWGTKURyxNW0uWZa0oCSGgtSbUv4GiKIjWeZDYKhqXYVEU7TE27+00duZRC4Jwj0MrRZYVdK0mBE/S7eG9J4kjlKpESRk8ZfBVrzRglI7Jy4Jud4YiwH3PvD/KxlVFcWMqV5vW7J7r8YWrP4PV4HDoOOEvPvABnv3857P/9NOr9iFAEsX0ej2ytGDx0FIV46MMfjQihCo9v+mvhVIorapBVmmMNRgDxhistSviqm09UQsrqDICJ4iiiNNOPUDHBgajO7j6c1fxve9dhyegjMYmMVbDaNCnN5NQlDnL/TH/9M+fqKxzWZXhRuOi8wGCb4+5+ju07sPGjecJlf0oBKJOj1tuvhnvqu0URUlUxz41hROrV2i/RxNHJRx/muvmvW+tPEZXQeAnUjA1KKVOiMXrWCOiSRCEHYCuIqJrgg9kg2X279/P8mAIQKfTwXuF94pupwPAzMwcUdxhMBrx2as/z/su+ShZkVd+szLlPqefhisyxsNlTKjKEwRVZcc/5sd/HK8NeVmSFXldBXuAKwMLCwt89KMf44YbbsK5EliJFwp1LJAvHWXpKvdcWeLyEldU7WCO1KutMdisnlwc5zzmUeRpTqI13qVcdvllLC8P6Q8GGFsN5XOzPdLhMjPzs1zzhX/nltvurM6bVm1JAKUUQSuC1rVQo7UqKV2XOFDUn1d98RSKIh2xf//+1l2olKotTGbHWg1OJqKock8754iiaFtnzG2H+Kq7itzpgiDsCMJEjAzKE3W6FGlGN04IoWQwHFRNe61hMBzgXEmUdOn3+3ziE5/mF57+vFYU4FMe9fjHMjPXQQXoJkld4ajCK7j++7dQBpiZnaHb7ZKVBVFdIuBLX/oSL3rJb+OCq+KntGkLQlprMFYTtKmCwwGUQutQB4orjJoURJVNJky6wyY+VkqjAjzunMdwxumn4LwjBMdb3/JWvvL1r1F6R14WVcNf71B4brr+e7z8gpeTZoCNwdi66XAlcIyhiney9d9Go43CKlDGYLTBaItVFgtYrVBa0+/3q9gtrzDaolVlMTPGoKfdecKW0rjn4jiuEyCE44HENAmCsCMI6DZFXgdPkS7zmotfyTOe+Qso78hGfVxeApoosoTg+MxnPsNnP3s1d9x5G1kB83Nd8uUUtOJ1r76Qua7B4CgKT6k0TtXVsQO88Q1/xB++9rXMn3V/yrIkiiJKn3PFFVfwa89/LkEbSu8oixxsj8gYojqQ2uqqbhG6stRopdAEjAKlA1obvA94BaWqilJClSWnqYLHdR1jVLm3DHO7dnPhha/k/Be/nPlOh35/iaf+9M/w7r94Fz/3lCdTOkeK4xtf+w+e9exnct1NfR78kLP58le/BVhcUVAWDl1mFJQEl1MUjqKAoAtckeEKcL6gxKOdoyhKHOB8TnCWV/3B7/O2t/wpM50ep+4/hd0LMxhbiafSlxvGTQnHD2stRVFUgdZ1bSa1TvV34e4hokkQhO3BehlWyrcxMUFbol6PsoSkYxjlBVd94gqu+sQVEEARqBxHVb2aJj8tqGbiUCwPqifwP/7j1/MTj34Yo8EyJlK4oHjW83+T9132D4SgKfKcKz/4IT72t5fz679xPvc7495851vf4sN/fSmj0YDS5TgfiIyp/Xk53/vud0iHGVFcUOoSG6rtAnhfoILDl1CUKdgO3peYOKKwUOSg8xxrIoxSFK6yJmkFzruqRIHqcu5Tf55zf+Yj/O1HP0aCxuU5L3j2r/CQsx/MT/zkT/ClL32Ba66+mqKEXifiy1+9ltPOuDffv+FmfOmITBWDFCcRxUihowRTV+jsWotRTSkCg406nHav03ngfU/jezfdwtBnXPulL3LuE34CMDz3Oc/lbW97C5E1lC7HE+oI8jqZrr2cYoHaKpog8O3IySLe5G4WBGH7MiGk+stDDi72QYPzZe1KC1AXYZwMOFYoDApFExwbiKMuc7MLXPo3l/HSF/82y3fezu65Lq4oiZMZHvGYc7jotX9UZR2VOVDg02X+x9v/lD/4vVfwzne+k0OHDrUT06sufhW/e+GFeO+Iel3u+M43+cI1n6PX6VTCQxsGo3GVxm8igisIrmDXwhwhVL3chuMRw3GK0xCUQdsYYwwEz1yvg/JVMc1O0iNzit7cbv78Xe/mST/5U1hliAhEaL557bW8993v5l//9WryAA7wShNbw+233AyRIbGa0hXMzs1gkxgVxYzzohI7BLLRgE6s6HUTvPM4F1jYcwo/+7M/S2SaelN1nIw2fPWrXyfPS8ajjLLY2sKJwlomxdJ2FU4nAyKaBEHY9gQ0u/cfIOn0WNg1Q1PcWB1hblBacdbZZ/Oc5zyH17zmtfzDlVfwjW9/iyc/+cl475mZ6bG0tFzF81iD1hG//uu/zuWXX85ZD3wQxsRV1pF3VQy69/RmZ3n605/OJz/xSS644AJ+6Zd+EQgUwzEYzec/91mWlxaJoggXFPMLp9Dtdogiy8N++IcoixFFmlG6kiRJqlcnohMnzC/sJep0sTbGRhH3vffpJLEuPPbmAAAKbUlEQVSl04k51F+qCmx6x8zcHO/7wPv50z97G7Pz8ygg7iR1sHpEZCNe+Fu/wZe/9lUuuvjVFIWDomC21yXShizLONRfwkQx9z7jvhAUxib80A8+BBXg0B2LdR+9Lp3OLK989at44Yt+G40n6cREnSqu67bbbuPgoUPMznXbAoqCcLKjvPftsHOymM+EncNkzRqlFIcOHaqetJGnJaGiqpLtUXh63S7LywM6vS7DcYZXTWJ70yKkGsOcK/GuqttkoghrbWXJ0RqtFYP+Er1OlxAq9ZXnBVFkiaMOw3RMUTiuv/46brzxRubm5siyjD2n7OPUex3gXvsPkKYjkm6HQ4t95ud2EZQmzT1lUTATK5YP3cG99u0BoD8YksztoV9q5mYM2WiEVYo0LzCRxWsPRUbsxigHxi6Qqw6H0pxkpospUxZmEnyeEyvo9/t0u12iKEJHEZ+7+hqGwwHDdEivN8P9HnAmuxZ20e122wrMnd48pY6IDOSjJWLjMZQUmSdzmmRmNyGyjEclvizoGlAux5c5M7MJWVkwHGfceucigZhT9u5ntDxi3759ZOMR2nqixDJZmlNN1xqQhr3HlRACu3btWlWjqSzLdowVjg0imoQTiogmYUPauKa6iKLWlN7hg8LVIkn5SgzpNvW/uneae6use9fFUVwVwHSeSBuWlpbodGOMsYSgqgykboeiKNpeXtZanHMoYyhdidGaoqzcZvNz82SlI01TtI2qBrbBY4KnzFJmF+YZZjl50Og4oSgzTCiJbETQhiJPsbHGlwXWZRgMPnRwKiZVBq0UkGFDICJAcJg6vd8H1RbArIp6evzUEF7kBb3ZOfK8pHCBKLaEYohRrj43Ch9iApagInRk8WWOCR7lC4wKGKvJywJHABVBsBAsvo7XSjqG8XiItQpqgQvUx75CmD444ZgiomlrEPecIAjbnma+9d7jgwdtaisTEDSeqthi4UKV/l5PGt57tLV0Oh3iKKYoC9I0xTlHlmV0Oh2sjcjzvF6naj/R1Llp0reNMQxHQ6yxFGXJTK9HFEUMR8O2cKCurWGqblwbxx1GwxQTVT3bXJERW0MUaco8JR+PMNbgC0diDdpGOKWrjDsVSLTCGk9sIqzVbQsZr8ARKFxV7sBGEUVRrhFMcRwTxdV3y/OCuZkOLh2SJAk27lTnKkowcYTznjixjAZ9jAKjK7GZu8DBxX5dj6kWRXXJh6pQJwwHfTqdqvK6IJzsiGgSBGFH4JXGK43zE1aLOlBca02SJFVZgLLEOVfXIzIUZUGWZRRlRgiurStU1qKjqZPkXEkcxa2lylpbNQjudCjLkvn5efIiJ45i+v0+cWIJIXDbbTezsGuOSSsLACaicL62VilU8OhQWc2UUnQ6nSr2yeXkeY53VMdBZRlzZYrLMopsXB2/d3R7cwxGKdrGxJ2ENM9I8zFxZ23F52Fd9FMFmJvpsnjwDrq9hPF4yHg8Jkm6jLOiru8TMRoss2fXPN45SleijSaKIg4cOEBRTgd6e6CsX9PvC8LJi7jnhBOKuOeEDVGrJ+LQ1DTyqq0L1ASEa12Jk3bZEEDXaf/BVfWSdISv3RaxjUjTlCiyjEdj9uzdy2A0bO9HY0zl4jCavPTYyBJciTUWQlm5QkyMcyWKWhAFDUFjdNUfb5iPmF2YpywKnC+r2Cuj8UFRuoJeJ6YoMpQPlTDEVus3bTHq72+NJU3HzM3MVo1664rcKL/KHTlJHMcMB0OSKMLYqpSCjSJ88JVrM1SCUSlN8FRC0ipUoCp5EKAoc3RU/05XmqPQTB1JkjBOh1izet/inttaxD23NYhoEk4oIpqEu0qYrkBdmWpWjWOTE0jzWWNJmmz90cQvtZuq+3c12wpKk9dVoAx5ZTFqP6vWacoe6Fo0gcYrX4ke5UErvKuqjhutqxpOyrcirzpG3YrCRghOF4w8XMZg+72nRGZTJJPgIOjaxVe1pVHK1vueCOBu9lu3g1FKoXRoyyS0wslPCDW11sI0PZ+IaDq+iGjaGqS4pSAIJwXrTQyNSGo4nEVmuk/XdC81r1YcTyZU/eF0aAKvm2U9kxEP0xohhFBVaA7UAdzNAnrNupN1pzxrhdNRo/xEa5ZK1FVh80dyp2lULYaCV3V/umZ5j2pE6zqCSRBOVkQ0CYKwI5l0wx1vqnIGrCMQNNOVzCfF0uTfK8e7ntjQNKpG4Ss9FVaLqLtK1RZGE5Rb85kKENREFe9WuGkItTpk+jiblUUsCfc8RDQJgiBsAkVlrWnKHzSWoiaLz0yJuO3kjfIKQtBrxFhT/wqoPwPqmKqq2joijgRhAhFNgiAIG+IxtTjSBHRQlRCpY5DUpDUmrBTcPBLT1qNpl6GqA9hNewTT6MN+st5yK5tXgG6LhhJ8VWBz1XHranlVuxFVIxJ921xYEO6JiGgSBEHYABWayuQTgdUT4iHsACERaivTGtGjfPudvPLgJz5vrFNSSkAQAKnTJAiCsClUYLVFqcaj8RNZb9uNoFYEU/P/k+jgJwRhs9JErNaa2CtBuOciliZBEITNcJjYnrpq1CY2sL0ER5Ov56dLN6iJIp0imARhFSKaBEG4R3LUdcBqE41rgoN8FTmtVdFssO6F52iDqBvxcRdqBjg2Or612XBH3lezPTfxl6KKmjIT67qVbYf6PaXu0ncQhJMNEU2CIAhHw1SJgfVLH+ygGKAwbUFa59jXLCMI90zklyAIgiAIgrAJRDQJgiAIgiBsAhFNgiAIgiAIm0BEkyAIgiAIwiYQ0SQIgiAIgrAJRDQJgiAIgiBsAhFNgiAIgiAIm0BEkyAIgiAIwiYQ0SQIgiAIgrAJRDQJgiAIgiBsAhFNgiAIgiAIm0BEkyAIgiAIwiYQ0SRsOSGEo+8wLwiCIAgnGBFNwrZBKXWiD0EQBEEQDos90QcgnPwczqrUvK+Uav8uyxKlFN57jDHrri9WKkEQhLV0u11GoxFQjZNaa4qiIIqiE3xkJw/Ke9/OQPKkLxwPjiRytNZorfHeA9Dr9UjTdNV6IpIEQRCOzOT8HUURZVkyHo/x3tPpdE7gkZ1ciKVJ2HLWE0FKKay1pGmK9544jtvlGkF1pPUFQRDuqawXJ+q9x1or1qZjjIgmYdtQFAV79+7lzv+/nbtrTRgIojB8djaS5P//TsG7TeJ+9KLs1hopwaapyPuAIMYLCXE9OzPmfNayLDL7HLmjPQcA28UYdTqdtCyLhmEgMO2IQXD8Oedce+SUlVKSmSnGKO+9cs5yzsl7r8vl0p5777/toPjXHQA8ZmYtHHVdp+v1qmEYlGL650/2XphpwmGmaVr11mvZ+HYoPOcsM1MIQeM4tvcSmABgrf52P2rD1fUU++BM4jC3gWmapvYFrzuh+9A+jqNSTJrneTXXBAD4Ukpp62QpRSEESSIw7YxKEw5TSlGMUeZMvvOrY6WU1sKrnDmZWTsGAFirFaV5ntX3fXs9hKC+7wlPOyE04WXct9+4HgFgm5/GF+o9m/B7nEUAAN4YG9D9EJoAAAA2IDQBAABswM0t8TIoIQPAc1g/j0GlCQAAYANCEwAAwAYfchfdL5HWz5IAAAAASUVORK5CYII=;" vertex="1" parent="1">
          <mxGeometry x="131" y="40" width="439.35" height="320" as="geometry" />
        </mxCell>
      </root>
    </mxGraphModel>
  </diagram>
</mxfile>
